<svg width="40" height="40" viewBox="0 0 40 40" fill="none" xmlns="http://www.w3.org/2000/svg">
<path d="M13.75 33.75C14.4404 33.75 15 33.1904 15 32.5C15 31.8096 14.4404 31.25 13.75 31.25C13.0596 31.25 12.5 31.8096 12.5 32.5C12.5 33.1904 13.0596 33.75 13.75 33.75Z" stroke="#7F76B3" stroke-width="2.5" stroke-linecap="round" stroke-linejoin="round"/>
<path d="M31.25 33.75C31.9404 33.75 32.5 33.1904 32.5 32.5C32.5 31.8096 31.9404 31.25 31.25 31.25C30.5596 31.25 30 31.8096 30 32.5C30 33.1904 30.5596 33.75 31.25 33.75Z" stroke="#7F76B3" stroke-width="2.5" stroke-linecap="round" stroke-linejoin="round"/>
<path d="M3.75 6.25H8.75L12.5 27.5H32.5" stroke="#7F76B3" stroke-width="2.5" stroke-linecap="round" stroke-linejoin="round"/>
<path d="M12.5 22.5H31.9875C32.132 22.5001 32.2722 22.4501 32.384 22.3585C32.4958 22.2669 32.5724 22.1394 32.6008 21.9977L34.8508 10.7477C34.8689 10.6569 34.8667 10.5633 34.8443 10.4736C34.8219 10.3838 34.7798 10.3002 34.7212 10.2286C34.6625 10.1571 34.5887 10.0995 34.505 10.0599C34.4214 10.0204 34.33 9.99994 34.2375 10H10" stroke="#7F76B3" stroke-width="2.5" stroke-linecap="round" stroke-linejoin="round"/>
</svg>
