<svg width="40" height="40" viewBox="0 0 40 40" fill="none" xmlns="http://www.w3.org/2000/svg">
<path d="M23.7491 35C23.7491 35.3315 23.6174 35.6495 23.383 35.8839C23.1486 36.1183 22.8307 36.25 22.4991 36.25H17.4991C17.1676 36.25 16.8497 36.1183 16.6153 35.8839C16.3808 35.6495 16.2491 35.3315 16.2491 35C16.2491 34.6685 16.3808 34.3505 16.6153 34.1161C16.8497 33.8817 17.1676 33.75 17.4991 33.75H22.4991C22.8307 33.75 23.1486 33.8817 23.383 34.1161C23.6174 34.3505 23.7491 34.6685 23.7491 35ZM19.9991 17.5C20.37 17.5 20.7325 17.39 21.0408 17.184C21.3492 16.978 21.5895 16.6852 21.7314 16.3425C21.8733 15.9999 21.9105 15.6229 21.8381 15.2592C21.7658 14.8955 21.5872 14.5614 21.325 14.2992C21.0627 14.037 20.7287 13.8584 20.3649 13.786C20.0012 13.7137 19.6242 13.7508 19.2816 13.8927C18.939 14.0346 18.6462 14.275 18.4401 14.5833C18.2341 14.8917 18.1241 15.2542 18.1241 15.625C18.1241 16.1223 18.3217 16.5992 18.6733 16.9508C19.0249 17.3025 19.5019 17.5 19.9991 17.5ZM34.9398 24.3484L33.0085 33.0406C32.9169 33.4534 32.7221 33.8362 32.4423 34.1532C32.1625 34.4702 31.8069 34.7111 31.4087 34.8533C31.0105 34.9955 30.5828 35.0344 30.1655 34.9663C29.7482 34.8982 29.3549 34.7254 29.0226 34.4641L24.7663 31.25H15.2351L10.9757 34.4641C10.6433 34.7254 10.2501 34.8982 9.83282 34.9663C9.41552 35.0344 8.98777 34.9955 8.58958 34.8533C8.1914 34.7111 7.83578 34.4702 7.55599 34.1532C7.27621 33.8362 7.08139 33.4534 6.98977 33.0406L5.05852 24.3484C4.9766 23.9754 4.98074 23.5887 5.07062 23.2175C5.16051 22.8463 5.33377 22.5005 5.57727 22.2063L10.0398 16.8531C10.1894 14.8858 10.641 12.9533 11.3788 11.1234C13.3945 6.07031 17.0038 2.9 18.4679 1.77187C18.9061 1.43232 19.4448 1.24805 19.9991 1.24805C20.5535 1.24805 21.0922 1.43232 21.5304 1.77187C22.9898 2.9 26.6038 6.07031 28.6195 11.1234C29.3573 12.9533 29.8089 14.8858 29.9585 16.8531L34.421 22.2063C34.6645 22.5005 34.8378 22.8463 34.9277 23.2175C35.0176 23.5887 35.0217 23.9754 34.9398 24.3484ZM15.5351 28.75H24.4632C27.7632 22.8844 28.3804 17.2688 26.2976 12.05C24.4601 7.44375 21.0132 4.53125 19.9991 3.75C18.982 4.53125 15.5351 7.44375 13.6976 12.05C11.6179 17.2688 12.2351 22.8844 15.5351 28.75ZM13.1913 29.6641C11.509 26.6068 10.4882 23.6021 10.1288 20.65L7.49914 23.8063L9.43039 32.5L9.45852 32.4797L13.1913 29.6641ZM32.4991 23.8063L29.8695 20.65C29.5132 23.5958 28.4945 26.6005 26.8132 29.6641L30.5398 32.4766L30.5679 32.4969L32.4991 23.8063Z" fill="white"/>
</svg>
