<svg width="40" height="40" viewBox="0 0 40 40" fill="none" xmlns="http://www.w3.org/2000/svg">
<path d="M33.3337 30V16.6667C33.3337 13.5233 33.3337 11.9517 32.357 10.9767C31.3803 10 29.8103 10 26.667 10H6.66699V30C6.66699 33.1417 6.66699 34.7133 7.64366 35.69C8.62033 36.6667 10.1903 36.6667 13.3337 36.6667H26.667C29.8103 36.6667 31.3803 36.6667 32.357 35.69C33.3337 34.7133 33.3337 33.1417 33.3337 30Z" stroke="#7F76B3" stroke-width="2.5" stroke-linecap="round" stroke-linejoin="round"/>
<path d="M20.0003 18.3332C21.3264 18.3332 22.5982 18.86 23.5359 19.7977C24.4735 20.7354 25.0003 22.0071 25.0003 23.3332M20.0003 18.3332C18.6742 18.3332 17.4025 18.86 16.4648 19.7977C15.5271 20.7354 15.0003 22.0071 15.0003 23.3332M20.0003 18.3332V16.6665M25.0003 23.3332H15.0003M25.0003 23.3332H26.667M15.0003 23.3332H13.3337M13.3337 29.9999H26.667M6.66699 9.99988L18.9753 4.84321C21.7237 3.69154 23.097 3.11488 24.192 3.40988C24.9019 3.60066 25.5289 4.02079 25.9753 4.60488C26.667 5.50821 26.667 7.00488 26.667 9.99988" stroke="#7F76B3" stroke-width="2.5" stroke-linecap="round" stroke-linejoin="round"/>
</svg>
