<svg width="40" height="40" viewBox="0 0 40 40" fill="none" xmlns="http://www.w3.org/2000/svg">
<path d="M27.4999 17.5H23.7499C23.4184 17.5 23.1004 17.3683 22.866 17.1339C22.6316 16.8995 22.4999 16.5815 22.4999 16.25C22.4999 15.9185 22.6316 15.6005 22.866 15.3661C23.1004 15.1317 23.4184 15 23.7499 15H27.4999C27.8314 15 28.1493 15.1317 28.3838 15.3661C28.6182 15.6005 28.7499 15.9185 28.7499 16.25C28.7499 16.5815 28.6182 16.8995 28.3838 17.1339C28.1493 17.3683 27.8314 17.5 27.4999 17.5ZM16.2499 15H14.9999V13.75C14.9999 13.4185 14.8682 13.1005 14.6338 12.8661C14.3993 12.6317 14.0814 12.5 13.7499 12.5C13.4184 12.5 13.1004 12.6317 12.866 12.8661C12.6316 13.1005 12.4999 13.4185 12.4999 13.75V15H11.2499C10.9184 15 10.6004 15.1317 10.366 15.3661C10.1316 15.6005 9.99987 15.9185 9.99987 16.25C9.99987 16.5815 10.1316 16.8995 10.366 17.1339C10.6004 17.3683 10.9184 17.5 11.2499 17.5H12.4999V18.75C12.4999 19.0815 12.6316 19.3995 12.866 19.6339C13.1004 19.8683 13.4184 20 13.7499 20C14.0814 20 14.3993 19.8683 14.6338 19.6339C14.8682 19.3995 14.9999 19.0815 14.9999 18.75V17.5H16.2499C16.5814 17.5 16.8993 17.3683 17.1338 17.1339C17.3682 16.8995 17.4999 16.5815 17.4999 16.25C17.4999 15.9185 17.3682 15.6005 17.1338 15.3661C16.8993 15.1317 16.5814 15 16.2499 15ZM37.7311 31.3516C37.26 32.0243 36.6473 32.5857 35.9361 32.9963C35.2248 33.407 34.4323 33.6569 33.6141 33.7285C32.796 33.8002 31.9721 33.6918 31.2003 33.411C30.4285 33.1302 29.7276 32.6838 29.1467 32.1031C29.128 32.0844 29.1092 32.0656 29.0921 32.0453L22.8874 25H17.1061L10.9077 32.0453L10.853 32.1031C9.79706 33.1568 8.36657 33.749 6.87487 33.75C6.05368 33.7497 5.24252 33.5696 4.49836 33.2223C3.7542 32.8751 3.0951 32.3691 2.56735 31.74C2.03961 31.1108 1.65602 30.3737 1.44353 29.5805C1.23104 28.7873 1.19481 27.9572 1.33737 27.1484C1.33664 27.1412 1.33664 27.1338 1.33737 27.1266L3.89519 13.9875C4.27586 11.8204 5.40809 9.85682 7.09293 8.44174C8.77777 7.02666 10.9074 6.25062 13.1077 6.25H26.8749C29.0685 6.2535 31.1916 7.02509 32.8756 8.43082C34.5596 9.83654 35.6982 11.7876 36.0936 13.9453V13.9734L38.6514 27.125C38.6522 27.1323 38.6522 27.1396 38.6514 27.1469C38.7838 27.8738 38.7706 28.6197 38.6127 29.3414C38.4547 30.0632 38.155 30.7464 37.7311 31.3516ZM26.8749 22.5C28.6982 22.5 30.4469 21.7757 31.7362 20.4864C33.0255 19.197 33.7499 17.4484 33.7499 15.625C33.7499 13.8016 33.0255 12.053 31.7362 10.7636C30.4469 9.47433 28.6982 8.75 26.8749 8.75H13.1077C11.4935 8.75145 9.93162 9.32209 8.6967 10.3615C7.46179 11.401 6.63299 12.8426 6.35612 14.4328V14.4531L3.79675 27.5922C3.68362 28.2436 3.78 28.9141 4.07203 29.5072C4.36405 30.1004 4.83668 30.5856 5.42193 30.8932C6.00718 31.2007 6.67489 31.3148 7.32904 31.2188C7.98319 31.1229 8.59006 30.822 9.06237 30.3594L15.6124 22.9234C15.7297 22.7904 15.8739 22.6838 16.0355 22.6108C16.1972 22.5378 16.3725 22.5 16.5499 22.5H26.8749ZM36.203 27.5922L34.8374 20.5609C33.9975 21.9172 32.8254 23.0367 31.432 23.8135C30.0387 24.5903 28.4701 24.9987 26.8749 25H26.2186L30.9374 30.3609C31.2931 30.707 31.7259 30.9638 32.2001 31.1102C32.6744 31.2566 33.1766 31.2884 33.6655 31.2031C34.48 31.0594 35.2043 30.5986 35.6797 29.9217C36.155 29.2448 36.3426 28.4071 36.2014 27.5922H36.203Z" fill="white"/>
</svg>
