<svg width="40" height="40" viewBox="0 0 40 40" fill="none" xmlns="http://www.w3.org/2000/svg">
<path d="M5 11.6668V30.0002C5 33.1435 5 34.7135 5.97667 35.6902C6.95333 36.6668 8.52333 36.6668 11.6667 36.6668H28.3333C31.4767 36.6668 33.0467 36.6668 34.0233 35.6902C35 34.7135 35 33.1435 35 30.0002V11.6668M28.3333 11.6668C28.3333 9.45669 27.4554 7.33708 25.8926 5.77427C24.3298 4.21147 22.2101 3.3335 20 3.3335C17.7899 3.3335 15.6702 4.21147 14.1074 5.77427C12.5446 7.33708 11.6667 9.45669 11.6667 11.6668" stroke="#7F76B3" stroke-width="2.5" stroke-linecap="round" stroke-linejoin="round"/>
<path d="M23.333 36.6667V30C23.333 29.1159 22.9818 28.2681 22.3567 27.643C21.7316 27.0179 20.8837 26.6667 19.9997 26.6667C19.1156 26.6667 18.2678 27.0179 17.6427 27.643C17.0175 28.2681 16.6663 29.1159 16.6663 30V36.6667M14.9997 5H7.45301C6.93634 5 6.41134 5.13667 5.99634 5.54833C4.75967 6.77333 4.04634 8.81333 3.33301 11.6667H11.6663M24.9997 5H32.5463C33.063 5 33.588 5.13667 34.003 5.54833C35.2397 6.77333 35.953 8.81333 36.6663 11.6667H28.333M9.99967 18.3333H10.833M9.99967 24.1667H10.833M29.1663 18.3333H29.9997M29.1663 24.1667H29.9997M17.4997 13.3333V15.8333M17.4997 15.8333V18.3333M17.4997 15.8333H22.4997M22.4997 13.3333V15.8333M22.4997 15.8333V18.3333" stroke="#7F76B3" stroke-width="2.5" stroke-linecap="round" stroke-linejoin="round"/>
</svg>
