<svg width="40" height="40" viewBox="0 0 40 40" fill="none" xmlns="http://www.w3.org/2000/svg">
<path d="M33.3327 30V16.6667C33.3327 13.5233 33.3327 11.9517 32.356 10.9767C31.3793 10 29.8093 10 26.666 10H6.66602V30C6.66602 33.1417 6.66602 34.7133 7.64269 35.69C8.61936 36.6667 10.1893 36.6667 13.3327 36.6667H26.666C29.8093 36.6667 31.3793 36.6667 32.356 35.69C33.3327 34.7133 33.3327 33.1417 33.3327 30Z" stroke="white" stroke-width="2.5" stroke-linecap="round" stroke-linejoin="round"/>
<path d="M19.9993 18.3337C21.3254 18.3337 22.5972 18.8605 23.5349 19.7982C24.4725 20.7359 24.9993 22.0076 24.9993 23.3337M19.9993 18.3337C18.6732 18.3337 17.4015 18.8605 16.4638 19.7982C15.5261 20.7359 14.9993 22.0076 14.9993 23.3337M19.9993 18.3337V16.667M24.9993 23.3337H14.9993M24.9993 23.3337H26.666M14.9993 23.3337H13.3327M13.3327 30.0004H26.666M6.66602 10.0004L18.9743 4.8437C21.7227 3.69203 23.096 3.11537 24.191 3.41037C24.9009 3.60115 25.5279 4.02128 25.9743 4.60537C26.666 5.5087 26.666 7.00537 26.666 10.0004" stroke="white" stroke-width="2.5" stroke-linecap="round" stroke-linejoin="round"/>
</svg>
