<svg width="40" height="40" viewBox="0 0 40 40" fill="none" xmlns="http://www.w3.org/2000/svg">
<path d="M5 11.6673V30.0007C5 33.144 5 34.714 5.97667 35.6907C6.95333 36.6673 8.52333 36.6673 11.6667 36.6673H28.3333C31.4767 36.6673 33.0467 36.6673 34.0233 35.6907C35 34.714 35 33.144 35 30.0007V11.6673M28.3333 11.6673C28.3333 9.45717 27.4554 7.33756 25.8926 5.77475C24.3298 4.21195 22.2101 3.33398 20 3.33398C17.7899 3.33398 15.6702 4.21195 14.1074 5.77475C12.5446 7.33756 11.6667 9.45717 11.6667 11.6673" stroke="white" stroke-width="2.5" stroke-linecap="round" stroke-linejoin="round"/>
<path d="M23.334 36.6667V30C23.334 29.1159 22.9828 28.2681 22.3577 27.643C21.7326 27.0179 20.8847 26.6667 20.0007 26.6667C19.1166 26.6667 18.2688 27.0179 17.6437 27.643C17.0185 28.2681 16.6673 29.1159 16.6673 30V36.6667M15.0007 5H7.45398C6.93731 5 6.41231 5.13667 5.99731 5.54833C4.76064 6.77333 4.04731 8.81333 3.33398 11.6667H11.6673M25.0007 5H32.5473C33.064 5 33.589 5.13667 34.004 5.54833C35.2407 6.77333 35.954 8.81333 36.6673 11.6667H28.334M10.0006 18.3333H10.834M10.0006 24.1667H10.834M29.1673 18.3333H30.0007M29.1673 24.1667H30.0007M17.5007 13.3333V15.8333M17.5007 15.8333V18.3333M17.5007 15.8333H22.5007M22.5007 15.8333V13.3333M22.5007 15.8333V18.3333" stroke="white" stroke-width="2.5" stroke-linecap="round" stroke-linejoin="round"/>
</svg>
