<svg width="48" height="48" viewBox="0 0 48 48" fill="none" xmlns="http://www.w3.org/2000/svg">
<path d="M39 14.625H32.625V13.875C32.625 9.1125 28.7625 5.25 24 5.25C19.2375 5.25 15.375 9.1125 15.375 13.875V14.625H9C8.17031 14.625 7.5 15.2953 7.5 16.125V41.25C7.5 42.0797 8.17031 42.75 9 42.75H39C39.8297 42.75 40.5 42.0797 40.5 41.25V16.125C40.5 15.2953 39.8297 14.625 39 14.625ZM18.75 13.875C18.75 10.9734 21.0984 8.625 24 8.625C26.9016 8.625 29.25 10.9734 29.25 13.875V14.625H18.75V13.875ZM37.125 39.375H10.875V18H15.375V22.125C15.375 22.3313 15.5437 22.5 15.75 22.5H18.375C18.5813 22.5 18.75 22.3313 18.75 22.125V18H29.25V22.125C29.25 22.3313 29.4187 22.5 29.625 22.5H32.25C32.4563 22.5 32.625 22.3313 32.625 22.125V18H37.125V39.375Z" fill="#7F76B3"/>
</svg>
