<svg width="40" height="40" viewBox="0 0 40 40" fill="none" xmlns="http://www.w3.org/2000/svg">
<path d="M23.7491 34.9995C23.7491 35.331 23.6174 35.649 23.383 35.8834C23.1486 36.1178 22.8307 36.2495 22.4991 36.2495H17.4991C17.1676 36.2495 16.8497 36.1178 16.6153 35.8834C16.3808 35.649 16.2491 35.331 16.2491 34.9995C16.2491 34.668 16.3808 34.35 16.6153 34.1156C16.8497 33.8812 17.1676 33.7495 17.4991 33.7495H22.4991C22.8307 33.7495 23.1486 33.8812 23.383 34.1156C23.6174 34.35 23.7491 34.668 23.7491 34.9995ZM19.9991 17.4995C20.37 17.4995 20.7325 17.3895 21.0408 17.1835C21.3492 16.9775 21.5895 16.6847 21.7314 16.342C21.8733 15.9994 21.9105 15.6224 21.8381 15.2587C21.7658 14.895 21.5872 14.5609 21.325 14.2987C21.0627 14.0365 20.7287 13.8579 20.3649 13.7855C20.0012 13.7132 19.6242 13.7503 19.2816 13.8922C18.939 14.0341 18.6462 14.2745 18.4401 14.5828C18.2341 14.8912 18.1241 15.2537 18.1241 15.6245C18.1241 16.1218 18.3217 16.5987 18.6733 16.9503C19.0249 17.302 19.5019 17.4995 19.9991 17.4995ZM34.9398 24.3479L33.0085 33.0401C32.9169 33.4529 32.7221 33.8357 32.4423 34.1527C32.1625 34.4697 31.8069 34.7106 31.4087 34.8528C31.0105 34.995 30.5828 35.0339 30.1655 34.9658C29.7482 34.8977 29.3549 34.7249 29.0226 34.4636L24.7663 31.2495H15.2351L10.9757 34.4636C10.6433 34.7249 10.2501 34.8977 9.83282 34.9658C9.41552 35.0339 8.98777 34.995 8.58958 34.8528C8.1914 34.7106 7.83578 34.4697 7.55599 34.1527C7.27621 33.8357 7.08139 33.4529 6.98977 33.0401L5.05852 24.3479C4.9766 23.9749 4.98074 23.5882 5.07062 23.217C5.16051 22.8458 5.33377 22.5 5.57727 22.2058L10.0398 16.8526C10.1894 14.8853 10.641 12.9528 11.3788 11.1229C13.3945 6.06982 17.0038 2.89951 18.4679 1.77138C18.9061 1.43183 19.4448 1.24756 19.9991 1.24756C20.5535 1.24756 21.0922 1.43183 21.5304 1.77138C22.9898 2.89951 26.6038 6.06982 28.6195 11.1229C29.3573 12.9528 29.8089 14.8853 29.9585 16.8526L34.421 22.2058C34.6645 22.5 34.8378 22.8458 34.9277 23.217C35.0176 23.5882 35.0217 23.9749 34.9398 24.3479ZM15.5351 28.7495H24.4632C27.7632 22.8839 28.3804 17.2683 26.2976 12.0495C24.4601 7.44326 21.0132 4.53076 19.9991 3.74951C18.982 4.53076 15.5351 7.44326 13.6976 12.0495C11.6179 17.2683 12.2351 22.8839 15.5351 28.7495ZM13.1913 29.6636C11.509 26.6063 10.4882 23.6016 10.1288 20.6495L7.49914 23.8058L9.43039 32.4995L9.45852 32.4792L13.1913 29.6636ZM32.4991 23.8058L29.8695 20.6495C29.5132 23.5953 28.4945 26.6 26.8132 29.6636L30.5398 32.4761L30.5679 32.4964L32.4991 23.8058Z" fill="#7F76B3"/>
</svg>
