<svg width="40" height="40" viewBox="0 0 40 40" fill="none" xmlns="http://www.w3.org/2000/svg">
<path d="M20 29.375V25M20 25V20.625M20 25H15.625M20 25H24.375M6.25 15H33.75M26.25 10V5M13.75 10V5M8.75 35H31.25C31.913 35 32.5489 34.7366 33.0178 34.2678C33.4866 33.7989 33.75 33.163 33.75 32.5V10C33.75 9.33696 33.4866 8.70107 33.0178 8.23223C32.5489 7.76339 31.913 7.5 31.25 7.5H8.75C8.08696 7.5 7.45107 7.76339 6.98223 8.23223C6.51339 8.70107 6.25 9.33696 6.25 10V32.5C6.25 33.163 6.51339 33.7989 6.98223 34.2678C7.45107 34.7366 8.08696 35 8.75 35Z" stroke="#7F76B3" stroke-width="2.5" stroke-linecap="round" stroke-linejoin="round"/>
</svg>
