<svg width="326" height="65" viewBox="0 0 326 65" fill="none" xmlns="http://www.w3.org/2000/svg">
<path fill-rule="evenodd" clip-rule="evenodd" d="M37.8545 32.3849L50.0212 52.5561H55.1516L37.8545 23.7276V32.3849ZM37.8545 14.1085L62.8472 56.4039H50.0212L55.1516 64.0995H75.6732L37.8545 0V14.1085Z" fill="#B4B3B3"/>
<path fill-rule="evenodd" clip-rule="evenodd" d="M37.8188 32.3849L25.6521 52.5561H20.5217L37.8188 23.7276V32.3849ZM37.8188 14.1085L12.8261 56.4039H25.6521L20.5217 64.0995H0.000160217L37.8188 0V14.1085Z" fill="white"/>
<path fill-rule="evenodd" clip-rule="evenodd" d="M37.855 62.5265C41.7902 62.5264 44.9804 59.3362 44.9804 55.4009C44.9804 51.4657 41.7902 48.2755 37.855 48.2754V62.5265Z" fill="#D24242"/>
<path fill-rule="evenodd" clip-rule="evenodd" d="M37.855 62.5265C33.9197 62.5264 30.7296 59.3362 30.7296 55.4009C30.7296 51.4657 33.9197 48.2755 37.855 48.2754V62.5265Z" fill="#EF8181"/>
<path d="M101.621 51L110.837 13.176H113.269L122.357 51H119.925L117.493 41.336H106.293L103.925 51H101.621ZM106.485 39.864H117.365L111.989 17.208L106.485 39.864ZM128.266 51V13.176H130.57V30.2H144.138V13.176H146.378V51H144.138V32.056H130.57V51H128.266ZM164.683 51L173.899 13.176H176.331L185.419 51H182.987L180.555 41.336H169.355L166.987 51H164.683ZM169.547 39.864H180.427L175.051 17.208L169.547 39.864ZM191.328 51V13.176H202.144C204.107 13.176 205.75 13.6453 207.072 14.584C208.438 15.5227 209.12 17.1227 209.12 19.384V24.12C209.12 25.3573 208.95 26.4453 208.608 27.384C208.267 28.28 207.798 29.0053 207.2 29.56C206.56 30.2 205.792 30.6053 204.896 30.776C204.043 30.9467 203.36 31.032 202.848 31.032V30.904C203.787 30.904 204.683 31.0107 205.536 31.224C206.39 31.3947 207.072 31.7573 207.584 32.312C208.182 32.9093 208.651 33.656 208.992 34.552C209.334 35.448 209.504 36.4933 209.504 37.688V43.32C209.504 45.496 209.163 47.1387 208.48 48.248C207.84 49.3147 206.923 50.04 205.728 50.424C204.534 50.808 203.147 51 201.568 51H191.328ZM193.696 49.464H201.312C202.507 49.464 203.531 49.3147 204.384 49.016C205.28 48.7173 205.963 48.12 206.432 47.224C206.902 46.2853 207.136 44.8987 207.136 43.064V37.56C207.136 35.3413 206.496 33.8693 205.216 33.144C203.979 32.4187 202.443 32.056 200.608 32.056H193.696V49.464ZM193.696 30.328H200.48C202.571 30.328 204.15 29.816 205.216 28.792C206.326 27.7253 206.88 26.2747 206.88 24.44V19.832C206.88 18.0827 206.368 16.8027 205.344 15.992C204.363 15.1387 203.19 14.712 201.824 14.712H193.696V30.328ZM224.611 51.384C222.861 51.384 221.347 51.0427 220.067 50.36C218.787 49.6773 217.784 48.5467 217.059 46.968C216.376 45.3467 216.035 43.1493 216.035 40.376V38.264C216.376 38.264 216.739 38.264 217.123 38.264C217.549 38.264 217.933 38.264 218.275 38.264V40.44C218.275 42.8293 218.531 44.7067 219.043 46.072C219.597 47.3947 220.365 48.3333 221.347 48.888C222.328 49.4427 223.416 49.72 224.611 49.72C226.573 49.72 228.195 49.1227 229.475 47.928C230.797 46.6907 231.459 44.536 231.459 41.464C231.459 39.4587 231.16 37.9227 230.563 36.856C229.965 35.7893 229.069 34.9573 227.875 34.36C226.68 33.72 225.251 33.0587 223.587 32.376C222.307 31.864 221.091 31.2667 219.939 30.584C218.829 29.8587 217.933 28.8773 217.251 27.64C216.568 26.4027 216.227 24.7813 216.227 22.776C216.227 20.6853 216.504 18.936 217.059 17.528C217.656 16.0773 218.595 14.9893 219.875 14.264C221.155 13.5387 222.819 13.176 224.867 13.176C227.555 13.176 229.645 13.9013 231.139 15.352C232.632 16.76 233.379 18.744 233.379 21.304V25.336C233.037 25.336 232.675 25.336 232.291 25.336C231.949 25.336 231.565 25.336 231.139 25.336V21.752C231.139 19.6187 230.584 17.976 229.475 16.824C228.408 15.6293 226.872 15.032 224.867 15.032C222.648 15.032 221.027 15.672 220.003 16.952C218.979 18.1893 218.467 20.1093 218.467 22.712C218.467 24.4613 218.808 25.8693 219.491 26.936C220.173 27.96 221.048 28.7707 222.115 29.368C223.224 29.9653 224.376 30.4987 225.571 30.968C227.533 31.736 229.112 32.504 230.307 33.272C231.501 34.04 232.376 35.0427 232.931 36.28C233.485 37.4747 233.763 39.1387 233.763 41.272C233.763 43.7893 233.357 45.7947 232.547 47.288C231.779 48.7387 230.712 49.784 229.347 50.424C227.981 51.064 226.403 51.384 224.611 51.384ZM249.522 51.768C247.815 51.768 246.279 51.5547 244.914 51.128C243.591 50.744 242.546 49.9333 241.778 48.696C241.01 47.4587 240.626 45.56 240.626 43V20.984C240.626 18.552 241.01 16.76 241.778 15.608C242.546 14.4133 243.612 13.624 244.978 13.24C246.386 12.856 247.943 12.664 249.65 12.664C251.399 12.664 252.935 12.8773 254.258 13.304C255.623 13.688 256.69 14.4773 257.458 15.672C258.268 16.824 258.674 18.5947 258.674 20.984V43C258.674 45.6027 258.268 47.5227 257.458 48.76C256.69 49.9973 255.623 50.808 254.258 51.192C252.935 51.576 251.356 51.768 249.522 51.768ZM249.586 50.168C250.951 50.168 252.124 50.0187 253.106 49.72C254.13 49.4213 254.919 48.7813 255.474 47.8C256.071 46.8187 256.37 45.3253 256.37 43.32V21.112C256.37 19.1067 256.071 17.6133 255.474 16.632C254.919 15.6507 254.13 15.0107 253.106 14.712C252.082 14.4133 250.908 14.264 249.586 14.264C248.263 14.264 247.09 14.4133 246.066 14.712C245.084 15.0107 244.295 15.6507 243.698 16.632C243.143 17.6133 242.866 19.1067 242.866 21.112V43.32C242.866 45.3253 243.143 46.8187 243.698 47.8C244.295 48.7813 245.084 49.4213 246.066 49.72C247.09 50.0187 248.263 50.168 249.586 50.168ZM267.391 51V13.176H269.695V49.272H281.279V51H267.391ZM294.968 51.768C293.774 51.768 292.643 51.6613 291.576 51.448C290.51 51.2773 289.55 50.9147 288.696 50.36C287.843 49.7627 287.182 48.9307 286.712 47.864C286.243 46.7547 286.008 45.304 286.008 43.512V13.176H288.312V43.768C288.312 45.56 288.611 46.9253 289.208 47.864C289.848 48.76 290.68 49.3787 291.704 49.72C292.728 50.0187 293.816 50.168 294.968 50.168C296.163 50.168 297.272 50.0187 298.296 49.72C299.32 49.3787 300.131 48.76 300.728 47.864C301.368 46.9253 301.688 45.56 301.688 43.768V13.176H303.992V43.512C303.992 45.304 303.758 46.7547 303.288 47.864C302.819 48.9307 302.158 49.7627 301.304 50.36C300.494 50.9147 299.534 51.2773 298.424 51.448C297.315 51.6613 296.163 51.768 294.968 51.768ZM315.704 51V14.904H309.112V13.176H324.792V14.904H318.008V51H315.704Z" fill="white"/>
</svg>
