<svg width="290" height="128" viewBox="0 0 290 128" fill="none" xmlns="http://www.w3.org/2000/svg">
<g clip-path="url(#clip0_1158_26)">
<path d="M174.827 59.9215C172.859 58.9947 170.279 58.4757 167.16 58.4757C159.623 58.4757 154.537 63.1281 154.537 71.2836C154.537 80.0694 160.013 85.0183 168.812 85.0183C170.371 85.0183 172.748 84.9071 174.808 84.4993V59.9215H174.827ZM187.227 93.489C181.751 94.9347 174.604 95.6576 168.404 95.6576C152.477 95.6576 141.914 87.187 141.914 71.6914C141.914 57.0299 151.734 47.5213 166.12 47.5213C169.332 47.5213 172.748 47.9291 174.808 48.9671V27.6885H187.227V93.489Z" fill="white"/>
<path d="M276.761 59.9215C274.793 58.9947 272.213 58.4757 269.113 58.4757C261.558 58.4757 256.49 63.1281 256.49 71.2836C256.49 80.0694 261.966 85.0183 270.765 85.0183C272.325 85.0183 274.701 84.9071 276.761 84.4993V59.9215ZM289.18 93.489C283.704 94.9347 276.557 95.6576 270.357 95.6576C254.43 95.6576 243.867 87.187 243.867 71.6914C243.867 57.0299 253.687 47.5213 268.074 47.5213C271.285 47.5213 274.701 47.9291 276.761 48.9671V27.6885H289.18V93.489Z" fill="white"/>
<path d="M206.79 60.3697C208.893 59.5354 211.848 59.2388 214.386 59.2388C222.19 59.2388 227.589 63.6697 227.589 71.6231C227.589 81.004 221.622 85.2495 213.647 85.3608V96.2063C213.856 96.2063 214.064 96.2063 214.291 96.2063C230.657 96.2063 240.469 87.2147 240.469 71.2152C240.469 56.6433 230.013 48.0781 214.613 48.0781C206.809 48.0781 199.1 49.8394 194.023 51.8972V113.782H206.79V60.3697Z" fill="white"/>
<path fill-rule="evenodd" clip-rule="evenodd" d="M54.0885 0.963227L4.20052 28.4789L60.1395 60.1452C60.6576 60.4231 61.0462 61.0902 61.0462 61.7016L61.0277 109.303C61.0277 109.896 60.6206 110.581 60.1024 110.859L57.1047 112.527C56.8642 112.657 56.5496 112.731 56.2165 112.731H56.161C55.8094 112.731 55.4763 112.675 55.1988 112.527L52.201 110.859C51.6829 110.581 51.2943 109.896 51.2943 109.303L51.2573 66.8712C51.2388 66.5562 50.9983 66.1857 50.7577 66.0374L1.49887 38.0585L1.44336 93.6828C1.44336 94.9428 2.33157 96.4807 3.40483 97.1107L54.1995 126.906C55.2728 127.535 57.0492 127.535 58.1225 126.887L108.232 97.0737C109.306 96.4437 110.194 94.8872 110.194 93.6273V37.4841L76.8675 57.4955C76.6269 57.6437 76.3123 57.7179 75.9978 57.7179C75.6462 57.7179 75.3131 57.6252 75.054 57.477L72.1488 55.6797C71.6492 55.3832 71.2606 54.6791 71.2606 54.1047V50.6583C71.2606 50.0653 71.6492 49.3983 72.1673 49.1018L72.1858 49.0833C72.3154 48.9165 72.4449 48.7683 72.6114 48.6757L106.919 28.0713L58.067 0.963227C57.5118 0.666762 56.7901 0.5 56.0685 0.5C55.3653 0.5 54.6436 0.648233 54.0885 0.963227Z" fill="white"/>
</g>
<defs>
<clipPath id="clip0_1158_26">
<rect width="289" height="127" fill="white" transform="translate(0.5 0.5)"/>
</clipPath>
</defs>
</svg>
