<svg width="3726" height="765" viewBox="0 0 3726 765" fill="none" xmlns="http://www.w3.org/2000/svg">
<path fill-rule="evenodd" clip-rule="evenodd" d="M288.153 80C214.488 80 146.31 118.935 108.877 182.38C70.3743 247.639 70.3743 328.667 108.877 393.926C146.31 457.371 214.488 496.306 288.153 496.306H291.188C366.734 496.306 436.653 456.377 475.042 391.312L508.421 334.738H642.674C669.052 334.738 690.437 313.353 690.437 286.974C690.437 260.596 669.052 239.211 642.674 239.211H564.781L568.13 233.536C589.339 197.587 627.97 175.526 669.709 175.526H673.09C712.622 175.526 749.54 196.674 769.742 230.915C790.441 265.998 790.357 309.764 769.551 344.511C749.526 377.952 713.41 398.421 674.432 398.421H661.644C535.194 398.421 432.686 500.929 432.686 627.379V637.237C432.686 663.616 454.07 685 480.449 685C506.828 685 528.212 663.616 528.212 637.237V627.379C528.212 553.687 587.951 493.947 661.644 493.947H674.432C746.995 493.947 814.228 455.842 851.507 393.586C890.412 328.615 890.379 247.395 852.016 182.373C814.749 119.209 746.652 80 673.09 80H669.709C594.164 80 524.244 119.929 485.856 184.994L453.868 239.211H318.227C291.848 239.211 270.464 260.596 270.464 286.974C270.464 313.353 291.848 334.738 318.227 334.738H397.507L392.768 342.77C371.558 378.719 332.928 400.78 291.188 400.78H288.153C248.295 400.78 211.405 379.713 191.151 345.384C170.318 310.074 170.318 266.232 191.151 230.922C211.405 196.593 248.295 175.526 288.153 175.526H385.819C412.197 175.526 433.582 154.142 433.582 127.763C433.582 101.384 412.197 80 385.819 80H288.153Z" fill="white"/>
<path d="M1393.37 478.34C1355.29 478.34 1321.47 470.018 1291.89 453.375C1262.32 436.361 1239.4 412.875 1223.14 382.916C1206.87 352.588 1198.74 318.19 1198.74 279.725C1198.74 240.52 1207.24 205.753 1224.24 175.424C1241.25 145.096 1264.35 121.609 1293.56 104.966C1323.13 88.3219 1355.85 80 1391.7 80C1420.54 80 1445.67 83.5137 1467.11 90.541C1488.92 97.5684 1509.81 107.37 1529.77 119.945C1532.73 121.424 1535.32 124.013 1537.54 127.712C1539.75 131.411 1540.86 135.479 1540.86 139.917C1540.86 146.205 1538.64 151.568 1534.21 156.006C1530.14 160.445 1524.6 162.664 1517.57 162.664C1513.51 162.664 1509.63 161.739 1505.93 159.89C1488.55 149.534 1471.18 141.767 1453.81 136.589C1436.43 131.411 1417.58 128.822 1397.25 128.822C1369.15 128.822 1343.83 134.739 1321.28 146.575C1298.73 158.41 1280.99 175.794 1268.05 198.725C1255.48 221.287 1249.2 248.287 1249.2 279.725C1249.2 308.574 1255.11 334.464 1266.94 357.396C1279.14 379.957 1296.51 397.895 1319.06 411.21C1341.98 424.156 1368.97 430.628 1400.02 430.628C1434.77 430.628 1467.11 422.491 1497.06 406.217V305.8H1405.57C1399.28 305.8 1393.92 303.581 1389.48 299.143C1385.05 294.704 1382.83 289.341 1382.83 283.054C1382.83 276.766 1385.05 271.403 1389.48 266.965C1393.92 262.526 1399.28 260.307 1405.57 260.307H1514.8C1522.19 260.307 1528.48 262.896 1533.65 268.074C1538.83 273.252 1541.42 279.54 1541.42 286.937V412.875C1541.42 420.642 1539.38 427.669 1535.32 433.957C1531.62 439.875 1526.63 444.313 1520.35 447.272C1478.94 467.984 1436.62 478.34 1393.37 478.34Z" fill="white"/>
<path d="M1666.64 472.792C1659.62 472.792 1653.7 470.388 1648.9 465.58C1644.09 460.772 1641.69 454.854 1641.69 447.827V111.068C1641.69 104.041 1644.09 98.1232 1648.9 93.315C1653.7 88.1369 1659.62 85.5479 1666.64 85.5479H1889C1895.65 85.5479 1901.2 87.952 1905.63 92.7602C1910.44 97.1985 1912.84 102.746 1912.84 109.404C1912.84 116.061 1910.44 121.609 1905.63 126.048C1901.2 130.486 1895.65 132.705 1889 132.705H1692.15V255.314H1869.03C1875.69 255.314 1881.23 257.718 1885.67 262.526C1890.47 266.965 1892.88 272.513 1892.88 279.17C1892.88 285.828 1890.47 291.376 1885.67 295.814C1881.23 300.252 1875.69 302.471 1869.03 302.471H1692.15V425.635H1889C1895.65 425.635 1901.2 428.039 1905.63 432.847C1910.44 437.286 1912.84 442.834 1912.84 449.491C1912.84 456.149 1910.44 461.696 1905.63 466.135C1901.2 470.573 1895.65 472.792 1889 472.792H1666.64Z" fill="white"/>
<path d="M2020.24 475.566C2013.22 475.566 2007.3 473.162 2002.5 468.354C1997.69 463.546 1995.29 457.628 1995.29 450.601V119.39C1995.29 109.404 1998.8 100.897 2005.83 93.8702C2012.85 86.473 2021.35 82.7744 2031.33 82.7744H2049.63C2057.02 82.7744 2063.68 84.9935 2069.59 89.4318C2075.88 93.8702 2080.5 99.4181 2083.46 106.075L2209.33 420.087L2335.2 106.075C2338.16 99.4181 2342.59 93.8702 2348.51 89.4318C2354.79 84.9935 2361.63 82.7744 2369.02 82.7744H2387.32C2397.3 82.7744 2405.8 86.473 2412.83 93.8702C2419.85 100.897 2423.36 109.404 2423.36 119.39V450.601C2423.36 457.628 2420.96 463.546 2416.15 468.354C2411.35 473.162 2405.43 475.566 2398.41 475.566C2391.39 475.566 2385.29 473.162 2380.11 468.354C2375.31 463.546 2372.9 457.628 2372.9 450.601V135.479L2244.81 452.265C2241.86 459.292 2237.05 465.025 2230.4 469.464C2224.11 473.532 2217.09 475.566 2209.33 475.566C2201.56 475.566 2194.36 473.532 2187.7 469.464C2181.42 465.025 2176.8 459.292 2173.84 452.265L2045.75 135.479V450.601C2045.75 457.628 2043.16 463.546 2037.99 468.354C2033.18 473.162 2027.27 475.566 2020.24 475.566Z" fill="white"/>
<path d="M2555.79 475.566C2548.76 475.566 2542.85 473.162 2538.04 468.354C2533.24 463.546 2530.84 457.628 2530.84 450.601V111.068C2530.84 104.041 2533.24 98.1232 2538.04 93.315C2542.85 88.1369 2548.76 85.5479 2555.79 85.5479H2682.21C2717.33 85.5479 2745.98 91.4657 2768.16 103.301C2790.34 115.137 2806.24 130.301 2815.85 148.794C2825.46 167.287 2830.26 187.26 2830.26 208.712C2830.26 230.164 2825.46 250.136 2815.85 268.629C2806.24 287.122 2790.34 302.286 2768.16 314.122C2745.98 325.958 2717.33 331.875 2682.21 331.875H2581.3V450.601C2581.3 457.628 2578.71 463.546 2573.53 468.354C2568.73 473.162 2562.81 475.566 2555.79 475.566ZM2677.22 284.163C2714.93 284.163 2741.36 276.951 2756.52 262.526C2772.04 248.102 2779.81 230.164 2779.81 208.712C2779.81 187.26 2772.04 169.321 2756.52 154.897C2741.36 140.472 2714.93 133.26 2677.22 133.26H2581.3V284.163H2677.22Z" fill="white"/>
<path d="M2928.34 475.566C2921.32 475.566 2915.4 473.162 2910.6 468.354C2905.79 463.546 2903.39 457.628 2903.39 450.601V111.068C2903.39 104.041 2905.79 98.1232 2910.6 93.315C2915.4 88.1369 2921.32 85.5479 2928.34 85.5479H3057.54C3107.81 85.5479 3145.52 95.904 3170.66 116.616C3195.79 137.328 3208.36 164.513 3208.36 198.171C3208.36 220.362 3202.08 240.705 3189.51 259.198C3177.31 277.321 3159.38 290.451 3135.72 298.588C3162.34 305.615 3180.45 322.259 3190.06 348.519C3200.05 374.409 3205.04 399.93 3205.04 425.08V450.601C3205.04 457.628 3202.63 463.546 3197.83 468.354C3193.02 473.162 3187.11 475.566 3180.08 475.566C3172.32 475.566 3166.04 473.347 3161.23 468.909C3156.79 464.101 3154.58 457.998 3154.58 450.601V433.957C3154.58 415.464 3152.91 398.45 3149.59 382.916C3146.26 367.012 3138.31 352.957 3125.74 340.752C3113.17 328.177 3094.14 321.889 3068.63 321.889H2953.85V450.601C2953.85 457.628 2951.26 463.546 2946.09 468.354C2941.28 473.162 2935.37 475.566 2928.34 475.566ZM3054.21 274.177C3086 274.177 3111.14 267.889 3129.62 255.314C3148.48 242.739 3157.9 224.985 3157.9 202.054C3157.9 179.862 3149.77 162.849 3133.51 151.013C3117.61 139.178 3090.25 133.26 3051.44 133.26H2953.85V274.177H3054.21Z" fill="white"/>
<path d="M3469.48 478.34C3430.67 478.34 3396.66 469.833 3367.46 452.82C3338.25 435.806 3315.7 412.32 3299.81 382.361C3283.91 352.403 3275.59 318.006 3274.85 279.17C3275.59 240.335 3283.91 205.938 3299.81 175.979C3315.7 146.02 3338.25 122.534 3367.46 105.52C3396.66 88.5068 3430.67 80 3469.48 80C3508.3 80 3542.12 88.5068 3570.96 105.52C3600.16 122.534 3622.71 146.205 3638.61 176.534C3654.87 206.492 3663.37 240.705 3664.11 279.17C3663.37 317.636 3654.87 352.033 3638.61 382.361C3622.71 412.32 3600.16 435.806 3570.96 452.82C3542.12 469.833 3508.3 478.34 3469.48 478.34ZM3469.48 431.183C3499.06 431.183 3524.75 424.525 3546.56 411.21C3568.37 397.895 3585 379.772 3596.46 356.841C3607.92 333.91 3613.65 308.019 3613.65 279.17C3613.65 250.321 3607.92 224.431 3596.46 201.499C3585 178.568 3568.37 160.445 3546.56 147.13C3524.75 133.815 3499.06 127.157 3469.48 127.157C3439.54 127.157 3413.66 133.815 3391.85 147.13C3370.41 160.445 3353.96 178.568 3342.5 201.499C3331.04 224.431 3325.31 250.321 3325.31 279.17C3325.31 308.019 3331.04 333.91 3342.5 356.841C3353.96 379.772 3370.41 397.895 3391.85 411.21C3413.66 424.525 3439.54 431.183 3469.48 431.183Z" fill="white"/>
<path d="M1232.47 661.575C1230.52 661.575 1228.88 660.908 1227.54 659.572C1226.21 658.237 1225.54 656.593 1225.54 654.641V561.097C1225.54 559.145 1226.21 557.501 1227.54 556.165C1228.88 554.727 1230.52 554.008 1232.47 554.008H1268.82C1279.81 554.008 1288.28 556.525 1294.23 561.559C1300.29 566.593 1303.32 573.374 1303.32 581.901C1303.32 587.86 1301.88 592.843 1299.01 596.85C1296.24 600.754 1292.64 603.682 1288.23 605.634C1294.39 607.586 1299.42 610.72 1303.32 615.035C1307.33 619.35 1309.33 624.795 1309.33 631.37C1309.33 640.822 1306.15 648.219 1299.78 653.562C1293.41 658.904 1283.4 661.575 1269.74 661.575H1232.47ZM1265.12 600.548C1274.26 600.548 1280.68 599.007 1284.38 595.925C1288.07 592.843 1289.92 588.528 1289.92 582.98C1289.92 578.151 1287.92 574.299 1283.91 571.422C1280.01 568.545 1274.62 567.107 1267.74 567.107H1239.55V600.548H1265.12ZM1268.36 648.476C1278.32 648.476 1285.35 646.935 1289.46 643.853C1293.67 640.771 1295.77 636.404 1295.77 630.754C1295.77 619.041 1286.69 613.185 1268.51 613.185H1239.55V648.476H1268.36Z" fill="white"/>
<path d="M1610.97 663.117C1600.19 663.117 1590.74 660.754 1582.63 656.028C1574.52 651.302 1568.25 644.778 1563.84 636.456C1559.42 628.134 1557.11 618.579 1556.91 607.792C1557.11 597.004 1559.42 587.449 1563.84 579.127C1568.25 570.805 1574.52 564.282 1582.63 559.556C1590.74 554.83 1600.19 552.467 1610.97 552.467C1621.75 552.467 1631.15 554.83 1639.16 559.556C1647.27 564.282 1653.53 570.857 1657.95 579.281C1662.47 587.603 1664.83 597.107 1665.03 607.792C1664.83 618.476 1662.47 628.031 1657.95 636.456C1653.53 644.778 1647.27 651.302 1639.16 656.028C1631.15 660.754 1621.75 663.117 1610.97 663.117ZM1610.97 650.017C1619.18 650.017 1626.32 648.168 1632.38 644.469C1638.44 640.771 1643.06 635.737 1646.24 629.367C1649.42 622.997 1651.02 615.805 1651.02 607.792C1651.02 599.778 1649.42 592.586 1646.24 586.216C1643.06 579.847 1638.44 574.812 1632.38 571.114C1626.32 567.415 1619.18 565.566 1610.97 565.566C1602.65 565.566 1595.46 567.415 1589.41 571.114C1583.45 574.812 1578.88 579.847 1575.7 586.216C1572.51 592.586 1570.92 599.778 1570.92 607.792C1570.92 615.805 1572.51 622.997 1575.7 629.367C1578.88 635.737 1583.45 640.771 1589.41 644.469C1595.46 648.168 1602.65 650.017 1610.97 650.017Z" fill="white"/>
<path d="M1962.85 663.117C1955.56 663.117 1948.52 661.576 1941.75 658.493C1934.97 655.411 1929.42 650.737 1925.11 644.469C1920.8 638.1 1918.64 630.343 1918.64 621.199V560.326C1918.64 558.374 1919.31 556.73 1920.64 555.395C1921.98 553.956 1923.62 553.237 1925.57 553.237C1927.52 553.237 1929.17 553.956 1930.5 555.395C1931.94 556.73 1932.66 558.374 1932.66 560.326V621.661C1932.66 627.826 1934.04 633.065 1936.82 637.38C1939.69 641.695 1943.44 644.932 1948.06 647.089C1952.68 649.247 1957.61 650.326 1962.85 650.326C1968.08 650.326 1973.01 649.247 1977.63 647.089C1982.26 644.932 1985.95 641.695 1988.72 637.38C1991.6 633.065 1993.04 627.826 1993.04 621.661V560.326C1993.04 558.374 1993.7 556.73 1995.04 555.395C1996.37 553.956 1998.02 553.237 1999.97 553.237C2001.92 553.237 2003.56 553.956 2004.9 555.395C2006.33 556.73 2007.05 558.374 2007.05 560.326V621.199C2007.05 630.343 2004.9 638.1 2000.58 644.469C1996.27 650.737 1990.73 655.411 1983.95 658.493C1977.17 661.576 1970.14 663.117 1962.85 663.117Z" fill="white"/>
<path d="M2299.06 662.346C2297.11 662.346 2295.47 661.678 2294.13 660.343C2292.8 659.007 2292.13 657.363 2292.13 655.411V567.107H2260.71C2258.86 567.107 2257.32 566.49 2256.09 565.258C2254.85 564.025 2254.24 562.484 2254.24 560.634C2254.24 558.785 2254.85 557.244 2256.09 556.011C2257.32 554.675 2258.86 554.008 2260.71 554.008H2337.41C2339.26 554.008 2340.8 554.675 2342.03 556.011C2343.37 557.244 2344.04 558.785 2344.04 560.634C2344.04 562.484 2343.37 564.025 2342.03 565.258C2340.8 566.49 2339.26 567.107 2337.41 567.107H2306.15V655.411C2306.15 657.363 2305.43 659.007 2303.99 660.343C2302.65 661.678 2301.01 662.346 2299.06 662.346Z" fill="white"/>
<path d="M2599.01 662.346C2597.06 662.346 2595.42 661.678 2594.08 660.343C2592.75 659.007 2592.08 657.363 2592.08 655.411V560.326C2592.08 558.374 2592.75 556.73 2594.08 555.395C2595.42 553.956 2597.06 553.237 2599.01 553.237C2600.96 553.237 2602.6 553.956 2603.94 555.395C2605.38 556.73 2606.09 558.374 2606.09 560.326V655.411C2606.09 657.363 2605.38 659.007 2603.94 660.343C2602.6 661.678 2600.96 662.346 2599.01 662.346Z" fill="white"/>
<path d="M2945.59 685C2943.64 685 2942 684.178 2940.67 682.534L2923.88 662.5C2921.31 662.911 2918.23 663.117 2914.63 663.117C2903.85 663.117 2894.41 660.754 2886.29 656.028C2878.18 651.302 2871.92 644.778 2867.5 636.456C2863.09 628.134 2860.78 618.579 2860.57 607.792C2860.78 597.004 2863.09 587.449 2867.5 579.127C2871.92 570.805 2878.18 564.282 2886.29 559.556C2894.41 554.83 2903.85 552.467 2914.63 552.467C2925.42 552.467 2934.81 554.83 2942.82 559.556C2950.93 564.282 2957.2 570.857 2961.61 579.281C2966.13 587.603 2968.49 597.107 2968.7 607.792C2968.49 619.812 2965.57 630.343 2959.92 639.384C2954.37 648.322 2946.67 654.846 2936.81 658.956L2950.37 673.904C2951.6 675.137 2952.22 676.627 2952.22 678.373C2952.32 680.12 2951.7 681.661 2950.37 682.997C2949.03 684.332 2947.44 685 2945.59 685ZM2914.63 650.017C2922.85 650.017 2929.99 648.168 2936.04 644.469C2942.1 640.771 2946.72 635.737 2949.91 629.367C2953.09 622.997 2954.68 615.805 2954.68 607.792C2954.68 599.778 2953.09 592.586 2949.91 586.216C2946.72 579.847 2942.1 574.812 2936.04 571.114C2929.99 567.415 2922.85 565.566 2914.63 565.566C2906.32 565.566 2899.13 567.415 2893.07 571.114C2887.12 574.812 2882.55 579.847 2879.36 586.216C2876.18 592.586 2874.59 599.778 2874.59 607.792C2874.59 615.805 2876.18 622.997 2879.36 629.367C2882.55 635.737 2887.12 640.771 2893.07 644.469C2899.13 648.168 2906.32 650.017 2914.63 650.017Z" fill="white"/>
<path d="M3266.51 663.117C3259.22 663.117 3252.19 661.576 3245.41 658.493C3238.63 655.411 3233.09 650.737 3228.78 644.469C3224.46 638.1 3222.31 630.343 3222.31 621.199V560.326C3222.31 558.374 3222.98 556.73 3224.31 555.395C3225.65 553.956 3227.29 553.237 3229.24 553.237C3231.19 553.237 3232.83 553.956 3234.17 555.395C3235.61 556.73 3236.32 558.374 3236.32 560.326V621.661C3236.32 627.826 3237.71 633.065 3240.48 637.38C3243.36 641.695 3247.11 644.932 3251.73 647.089C3256.35 649.247 3261.28 650.326 3266.51 650.326C3271.75 650.326 3276.68 649.247 3281.3 647.089C3285.92 644.932 3289.62 641.695 3292.39 637.38C3295.27 633.065 3296.7 627.826 3296.7 621.661V560.326C3296.7 558.374 3297.37 556.73 3298.71 555.395C3300.04 553.956 3301.68 553.237 3303.63 553.237C3305.59 553.237 3307.23 553.956 3308.56 555.395C3310 556.73 3310.72 558.374 3310.72 560.326V621.199C3310.72 630.343 3308.56 638.1 3304.25 644.469C3299.94 650.737 3294.39 655.411 3287.62 658.493C3280.84 661.576 3273.8 663.117 3266.51 663.117Z" fill="white"/>
<path d="M3577.77 661.575C3575.82 661.575 3574.18 660.908 3572.84 659.572C3571.51 658.237 3570.84 656.593 3570.84 654.641V561.097C3570.84 559.145 3571.51 557.501 3572.84 556.165C3574.18 554.727 3575.82 554.008 3577.77 554.008H3639.54C3641.39 554.008 3642.93 554.675 3644.16 556.011C3645.49 557.244 3646.16 558.785 3646.16 560.634C3646.16 562.484 3645.49 564.025 3644.16 565.258C3642.93 566.49 3641.39 567.107 3639.54 567.107H3584.86V601.165H3633.99C3635.84 601.165 3637.38 601.833 3638.61 603.168C3639.95 604.401 3640.62 605.942 3640.62 607.792C3640.62 609.641 3639.95 611.182 3638.61 612.415C3637.38 613.648 3635.84 614.264 3633.99 614.264H3584.86V648.476H3639.54C3641.39 648.476 3642.93 649.144 3644.16 650.48C3645.49 651.713 3646.16 653.254 3646.16 655.103C3646.16 656.952 3645.49 658.493 3644.16 659.726C3642.93 660.959 3641.39 661.575 3639.54 661.575H3577.77Z" fill="white"/>
</svg>
