<svg width="568" height="112" viewBox="0 0 568 112" fill="none" xmlns="http://www.w3.org/2000/svg">
<g clip-path="url(#clip0_1158_19)">
<path fill-rule="evenodd" clip-rule="evenodd" d="M0 0.100469C6.8 0.100469 13.1 -0.199531 19.2 0.300469C20.9 0.400469 22.8 2.40047 23.8 4.00047C32.8 18.3005 41.5 32.6005 50.4 46.9005C51.3 48.3005 52.1 49.6005 53.4 51.5005C54.5 49.9005 55.5 48.7005 56.3 47.4005C65.2 32.9005 74.1 18.4005 82.9 3.90047C84.6 1.10047 86.5 -0.199531 89.9 0.00046875C95.5 0.300469 101.2 0.100469 107.1 0.100469V108.6H86.3V40.3005C85.9 40.2005 85.5 40.1005 85.1 40.0005C84.1 41.4005 83.1 42.7005 82.2 44.1005C73.7 57.6005 65.4 71.2005 57 84.8005C53.8 90.0005 53.1 90.0005 49.9 84.7005C41.7 71.5005 33.6 58.2005 25.4 45.0005C24.3 43.2005 23.1 41.5005 20.9 40.0005V108.7H0V0.100469Z" fill="#282828"/>
<path fill-rule="evenodd" clip-rule="evenodd" d="M225.2 24.5004C218.9 28.1004 213.3 31.4004 207.7 34.6004C196 18.4004 175.4 16.8004 161.6 23.9004C147.1 31.3004 140 48.5004 144.3 65.5004C148.4 81.6004 163.1 92.1004 180.8 91.4004C196.8 90.8004 208.4 82.9004 210.9 70.2004H179.4V52.3004H231.5C235.7 70.6004 226.8 92.3004 210.9 102.8C184.3 120.4 145 111.3 129.6 83.2004C118.7 63.4004 119.5 43.2004 131.9 24.4004C144.2 5.80036 162.4 -1.69964 184.3 0.200363C201.5 1.80036 215 9.70036 225.2 24.5004Z" fill="#282828"/>
<path fill-rule="evenodd" clip-rule="evenodd" d="M547.8 108.501C547.8 94.2005 547.8 80.3005 547.8 66.5005C547.8 64.0005 547.7 61.5005 547.3 59.1005C546.1 52.1005 542.1 48.6005 535.5 48.1005C529.1 47.7005 523.4 51.3005 521.7 57.6005C520.7 61.1005 520.4 65.0005 520.4 68.7005C520.3 81.9005 520.4 95.0005 520.4 108.601H500.7C500.7 106.801 500.7 105.001 500.7 103.101C500.7 89.4005 500.9 75.6005 500.6 61.9005C500.4 53.6005 496.3 49.1005 489.1 48.3005C482.7 47.5005 476.5 51.3005 474.6 57.6005C473.7 60.6005 473.3 63.9005 473.3 67.1005C473.2 79.1005 473.2 91.0005 473.2 103.001V108.701H453.7V32.0005H473.1C473.2 34.2005 473.3 36.2005 473.4 39.1005C479.5 32.6005 486.5 29.5005 494.8 29.6005C503.4 29.7005 510.4 33.0005 515.6 40.4005C522.2 32.1005 530.9 29.0005 541.2 29.6005C554.7 30.4005 566.2 40.1005 567 54.3005C568.1 72.2005 567.3 90.2005 567.3 108.501H547.8Z" fill="white"/>
<path fill-rule="evenodd" clip-rule="evenodd" d="M348.5 25.2007C342.6 28.6007 336.7 31.9007 330.9 35.3007C315.7 17.5007 292.5 15.0007 276.8 29.0007C262.3 42.0007 262 68.1007 275.9 81.8007C287.6 93.3007 315.1 97.9007 331 76.5007C336.8 79.8007 342.7 83.2007 348.6 86.5007C336.8 106.701 310.7 116.201 285.9 109.701C260.9 103.201 244.7 81.5007 244.8 55.0007C245 29.6007 261.6 8.0007 285.8 1.9007C310.7 -4.3993 337.2 5.2007 348.5 25.2007Z" fill="#282828"/>
<path fill-rule="evenodd" clip-rule="evenodd" d="M359.8 70.6006C359.8 47.5006 377.4 29.6006 400 29.6006C422.4 29.6006 440.3 48.0006 440.1 70.8006C440 93.7006 422.1 111.901 399.7 111.801C377.2 111.701 359.8 93.8006 359.8 70.6006ZM420.4 71.1006C420.6 58.8006 412.2 49.5006 400.6 49.1006C388.7 48.8006 379.5 57.9006 379.3 70.2006C379.1 82.5006 387.9 92.0006 399.8 92.2006C411.4 92.4006 420.2 83.4006 420.4 71.1006Z" fill="white"/>
</g>
<defs>
<clipPath id="clip0_1158_19">
<rect width="567.4" height="111.8" fill="white"/>
</clipPath>
</defs>
</svg>
