<svg width="39" height="36" viewBox="0 0 39 36" fill="none" xmlns="http://www.w3.org/2000/svg">
<path fill-rule="evenodd" clip-rule="evenodd" d="M37.8037 22.3316L32.3115 31.8539C30.83 34.4234 28.0872 36.0039 25.118 35.9999L13.9253 35.9855C10.9581 35.9815 8.21454 34.3956 6.72749 31.8254L6.54125 31.5033C4.74242 26.8744 4.87585 25.6956 6.94022 22.0004C6.28417 23.2108 6.50673 24.5797 7.27368 25.5271C7.84253 26.2298 8.71155 26.7005 9.744 26.702L16.0554 26.7105C16.5182 26.7112 16.9139 26.3802 16.9949 25.9249L19.0744 14.2304C19.1366 13.8805 19.6387 13.881 19.702 14.2312L21.8127 25.9311C21.8947 26.3868 22.2916 26.7188 22.7542 26.7193L27.4047 26.7255C27.4975 26.7256 27.589 26.7258 27.6795 26.7257C27.7159 26.7256 27.7525 26.726 27.7887 26.7257C27.8566 26.7258 27.9238 26.7259 27.9901 26.7259L29.0655 26.7279C29.1423 26.7279 29.2182 26.7254 29.2926 26.7205C29.2929 26.7207 29.2929 26.7207 29.2929 26.7207C33.5957 26.6724 34.6777 26.219 37.8037 22.3316Z" fill="url(#paint0_linear_294_193)"/>
<path fill-rule="evenodd" clip-rule="evenodd" d="M32.2714 4.17504L37.8806 13.8707C39.3687 16.4432 39.3726 19.6109 37.8907 22.1805L37.8035 22.3315C34.6778 26.219 33.5955 26.6721 29.2929 26.7203C30.5624 26.6357 31.5562 25.8318 32.0001 24.7836C32.3668 23.9174 32.3582 22.8847 31.8192 21.9531L23.022 6.74707L23.0426 6.76262C20.0667 1.61603 19.5876 0.872159 13.999 0.000244141L25.0737 0.0150323C28.0409 0.0190359 30.7844 1.60467 32.2714 4.17504Z" fill="url(#paint1_linear_294_193)"/>
<path fill-rule="evenodd" clip-rule="evenodd" d="M22.1365 5.21552C21.4284 3.99136 20.1112 3.47093 18.8874 3.65484C17.986 3.79021 17.1353 4.308 16.6163 5.20802L8.25982 19.697L7.91487 20.2985L7.91562 20.2938C7.57124 20.8909 7.26073 21.4293 6.98405 21.9229C6.97231 21.9432 6.96085 21.9638 6.94939 21.9843C6.94629 21.9897 6.94334 21.9948 6.94024 22.0002C4.87587 25.6954 4.74245 26.8742 6.54127 31.503L1.11875 22.1294C-0.369307 19.5572 -0.373162 16.3892 1.1087 13.8199L6.68785 4.14638C8.16989 1.5767 10.9124 -0.00363661 13.8817 6.28448e-06L13.9996 0.000258761C19.5882 0.872138 20.0673 1.61601 23.0433 6.7626L23.0226 6.74709L22.1365 5.21552Z" fill="url(#paint2_linear_294_193)"/>
<defs>
<linearGradient id="paint0_linear_294_193" x1="28.5782" y1="31.3565" x2="10.8543" y2="31.8165" gradientUnits="userSpaceOnUse">
<stop stop-color="#FDC830"/>
<stop offset="1" stop-color="#F37335"/>
</linearGradient>
<linearGradient id="paint1_linear_294_193" x1="26.7648" y1="5.54156" x2="33.9997" y2="18.3302" gradientUnits="userSpaceOnUse">
<stop stop-color="#FDC830"/>
<stop offset="1" stop-color="#F37335"/>
</linearGradient>
<linearGradient id="paint2_linear_294_193" x1="3.01136" y1="19.8154" x2="13.0989" y2="4.15496" gradientUnits="userSpaceOnUse">
<stop stop-color="#FDC830"/>
<stop offset="1" stop-color="#F37335"/>
</linearGradient>
</defs>
</svg>
