<svg width="16" height="16" viewBox="0 0 16 16" fill="none" xmlns="http://www.w3.org/2000/svg">
<path fill-rule="evenodd" clip-rule="evenodd" d="M3.5 12V4C3.5 3.60218 3.65804 3.22064 3.93934 2.93934C4.22064 2.65804 4.60218 2.5 5 2.5H11C11.3978 2.5 11.7794 2.65804 12.0607 2.93934C12.342 3.22064 12.5 3.60218 12.5 4V12C12.5 12.3978 12.342 12.7794 12.0607 13.0607C11.7794 13.342 11.3978 13.5 11 13.5H5C4.60218 13.5 4.22064 13.342 3.93934 13.0607C3.65804 12.7794 3.5 12.3978 3.5 12ZM5 15C4.20435 15 3.44129 14.6839 2.87868 14.1213C2.31607 13.5587 2 12.7956 2 12V4C2 3.20435 2.31607 2.44129 2.87868 1.87868C3.44129 1.31607 4.20435 1 5 1H11C11.7956 1 12.5587 1.31607 13.1213 1.87868C13.6839 2.44129 14 3.20435 14 4V12C14 12.7956 13.6839 13.5587 13.1213 14.1213C12.5587 14.6839 11.7956 15 11 15H5ZM5.5 4C5.23478 4 4.98043 4.10536 4.79289 4.29289C4.60536 4.48043 4.5 4.73478 4.5 5C4.5 5.26522 4.60536 5.51957 4.79289 5.70711C4.98043 5.89464 5.23478 6 5.5 6H10.5C10.7652 6 11.0196 5.89464 11.2071 5.70711C11.3946 5.51957 11.5 5.26522 11.5 5C11.5 4.73478 11.3946 4.48043 11.2071 4.29289C11.0196 4.10536 10.7652 4 10.5 4H5.5ZM6.5 11C6.5 11.2652 6.39464 11.5196 6.20711 11.7071C6.01957 11.8946 5.76522 12 5.5 12C5.23478 12 4.98043 11.8946 4.79289 11.7071C4.60536 11.5196 4.5 11.2652 4.5 11C4.5 10.7348 4.60536 10.4804 4.79289 10.2929C4.98043 10.1054 5.23478 10 5.5 10C5.76522 10 6.01957 10.1054 6.20711 10.2929C6.39464 10.4804 6.5 10.7348 6.5 11ZM8 12C8.26522 12 8.51957 11.8946 8.70711 11.7071C8.89464 11.5196 9 11.2652 9 11C9 10.7348 8.89464 10.4804 8.70711 10.2929C8.51957 10.1054 8.26522 10 8 10C7.73478 10 7.48043 10.1054 7.29289 10.2929C7.10536 10.4804 7 10.7348 7 11C7 11.2652 7.10536 11.5196 7.29289 11.7071C7.48043 11.8946 7.73478 12 8 12ZM11.5 11C11.5 11.2652 11.3946 11.5196 11.2071 11.7071C11.0196 11.8946 10.7652 12 10.5 12C10.2348 12 9.98043 11.8946 9.79289 11.7071C9.60536 11.5196 9.5 11.2652 9.5 11C9.5 10.7348 9.60536 10.4804 9.79289 10.2929C9.98043 10.1054 10.2348 10 10.5 10C10.7652 10 11.0196 10.1054 11.2071 10.2929C11.3946 10.4804 11.5 10.7348 11.5 11ZM5.5 9C5.76522 9 6.01957 8.89464 6.20711 8.70711C6.39464 8.51957 6.5 8.26522 6.5 8C6.5 7.73478 6.39464 7.48043 6.20711 7.29289C6.01957 7.10536 5.76522 7 5.5 7C5.23478 7 4.98043 7.10536 4.79289 7.29289C4.60536 7.48043 4.5 7.73478 4.5 8C4.5 8.26522 4.60536 8.51957 4.79289 8.70711C4.98043 8.89464 5.23478 9 5.5 9ZM9 8C9 8.26522 8.89464 8.51957 8.70711 8.70711C8.51957 8.89464 8.26522 9 8 9C7.73478 9 7.48043 8.89464 7.29289 8.70711C7.10536 8.51957 7 8.26522 7 8C7 7.73478 7.10536 7.48043 7.29289 7.29289C7.48043 7.10536 7.73478 7 8 7C8.26522 7 8.51957 7.10536 8.70711 7.29289C8.89464 7.48043 9 7.73478 9 8ZM10.5 9C10.7652 9 11.0196 8.89464 11.2071 8.70711C11.3946 8.51957 11.5 8.26522 11.5 8C11.5 7.73478 11.3946 7.48043 11.2071 7.29289C11.0196 7.10536 10.7652 7 10.5 7C10.2348 7 9.98043 7.10536 9.79289 7.29289C9.60536 7.48043 9.5 7.73478 9.5 8C9.5 8.26522 9.60536 8.51957 9.79289 8.70711C9.98043 8.89464 10.2348 9 10.5 9Z" fill="black"/>
</svg>
