<svg width="16" height="16" viewBox="0 0 16 16" fill="none" xmlns="http://www.w3.org/2000/svg">
<g clip-path="url(#clip0_304_166)">
<path d="M1.33301 4.00004C1.33301 3.2928 1.61396 2.61452 2.11406 2.11442C2.61415 1.61433 3.29243 1.33337 3.99967 1.33337H11.9997C12.7069 1.33337 13.3852 1.61433 13.8853 2.11442C14.3854 2.61452 14.6663 3.2928 14.6663 4.00004V7.33337H1.33301V4.00004Z" stroke="black" stroke-width="1.33333" stroke-linecap="round" stroke-linejoin="round"/>
<path d="M12.333 11H10.333" stroke="black" stroke-width="1.33333" stroke-linecap="round"/>
<path d="M7.99967 7.33337H14.6663V12C14.6663 12.7073 14.3854 13.3856 13.8853 13.8857C13.3852 14.3858 12.7069 14.6667 11.9997 14.6667H7.99967M7.99967 7.33337V14.6667M7.99967 7.33337H1.33301V12C1.33301 12.7073 1.61396 13.3856 2.11406 13.8857C2.61415 14.3858 3.29243 14.6667 3.99967 14.6667H7.99967" stroke="black" stroke-width="1.33333" stroke-linecap="round" stroke-linejoin="round"/>
<path d="M3.66602 12L4.66602 11M4.66602 11L5.66602 10M4.66602 11L5.66602 12M4.66602 11L3.66602 10" stroke="black" stroke-width="1.33333" stroke-linecap="round"/>
</g>
<defs>
<clipPath id="clip0_304_166">
<rect width="16" height="16" fill="white"/>
</clipPath>
</defs>
</svg>
