<svg width="416" height="90" viewBox="0 0 416 90" fill="none" xmlns="http://www.w3.org/2000/svg">
<rect x="48" width="320" height="90" rx="45" fill="white" fill-opacity="0.4"/>
<rect x="65.9658" y="18.0518" width="179.655" height="53.8965" rx="26.9483" fill="#13ABDD"/>
<path d="M111.943 56.2271C110.701 58.0835 109.383 59.895 107.377 59.925C105.371 59.9699 104.727 58.7422 102.452 58.7422C100.161 58.7422 99.4575 59.895 97.5561 59.9699C95.5949 60.0447 94.1127 57.9937 92.8551 56.1821C90.2951 52.4842 88.3338 45.6723 90.9688 41.0911C92.2713 38.8155 94.6068 37.3782 97.1369 37.3333C99.0532 37.3034 100.88 38.6358 102.062 38.6358C103.23 38.6358 105.446 37.0339 107.767 37.2734C108.74 37.3183 111.464 37.6627 113.216 40.2377C113.081 40.3276 109.967 42.1541 109.997 45.9418C110.042 50.4631 113.965 51.9752 114.01 51.9902C113.965 52.095 113.381 54.146 111.943 56.2271ZM103.395 32.273C104.488 31.0304 106.299 30.0872 107.796 30.0273C107.991 31.779 107.287 33.5456 106.239 34.8032C105.206 36.0757 103.5 37.0638 101.823 36.9291C101.598 35.2074 102.437 33.4108 103.395 32.273Z" fill="white"/>
<path d="M168.776 33.7715C169.502 33.7715 170.198 34.0619 170.712 34.5787C171.225 35.0956 171.513 35.7966 171.513 36.5276V53.0664C171.513 53.7974 171.225 54.4984 170.712 55.0153C170.198 55.5321 169.502 55.8225 168.776 55.8225H161.78V58.8824H163.912C164.132 58.8824 164.345 58.963 164.512 59.1092C164.678 59.2553 164.786 59.4572 164.815 59.6773L164.824 59.8011C164.824 60.0233 164.745 60.2381 164.6 60.4056C164.455 60.5732 164.254 60.6822 164.036 60.7124L163.912 60.7198H149.922C149.691 60.7197 149.469 60.6313 149.3 60.4724C149.131 60.3134 149.028 60.0959 149.012 59.8637C148.997 59.6315 149.069 59.4019 149.215 59.2213C149.361 59.0407 149.569 58.9227 149.798 58.8909L149.922 58.8824H152.051V55.8225H145.056C144.33 55.8225 143.634 55.5321 143.121 55.0153C142.608 54.4984 142.319 53.7974 142.319 53.0664V36.5276C142.319 35.7966 142.608 35.0956 143.121 34.5787C143.634 34.0619 144.33 33.7715 145.056 33.7715H168.776ZM159.956 55.8225H153.876V58.8824H159.957L159.956 55.8225Z" fill="white"/>
<path fill-rule="evenodd" clip-rule="evenodd" d="M212.54 34.1938L213.797 31.8962C213.821 31.8391 213.822 31.7753 213.802 31.717C213.781 31.6588 213.74 31.6102 213.686 31.5806C213.632 31.5509 213.569 31.5423 213.509 31.5564C213.449 31.5705 213.397 31.6062 213.361 31.6569L212.091 33.9778C210.98 33.4864 209.778 33.2338 208.563 33.2362C207.3 33.2362 206.108 33.5005 205.041 33.9749L203.768 31.6569C203.753 31.6278 203.732 31.6022 203.706 31.5814C203.681 31.5606 203.652 31.5451 203.62 31.5357C203.589 31.5263 203.556 31.5233 203.524 31.5268C203.491 31.5303 203.46 31.5403 203.431 31.5561C203.402 31.5716 203.376 31.5927 203.356 31.6181C203.335 31.6436 203.32 31.6729 203.31 31.7044C203.301 31.7359 203.298 31.769 203.301 31.8016C203.305 31.8343 203.315 31.866 203.331 31.8948L204.589 34.1894C202.119 35.4652 200.448 37.8927 200.449 40.6807L216.674 40.6792C216.674 37.8912 215.009 35.4696 212.54 34.1938ZM204.871 37.7394C204.782 37.7393 204.694 37.7216 204.611 37.6872C204.529 37.6529 204.454 37.6026 204.391 37.5392C204.328 37.4759 204.278 37.4007 204.244 37.3179C204.21 37.2352 204.193 37.1465 204.193 37.057C204.193 36.9675 204.211 36.8789 204.245 36.7962C204.279 36.7135 204.329 36.6384 204.392 36.5752C204.455 36.512 204.53 36.4618 204.613 36.4277C204.695 36.3935 204.783 36.376 204.872 36.376C205.053 36.376 205.225 36.4479 205.353 36.5759C205.48 36.7039 205.552 36.8775 205.552 37.0585C205.552 37.2394 205.48 37.413 205.353 37.541C205.225 37.669 205.053 37.7409 204.872 37.7409M216.619 41.3054L216.622 53.0005C216.622 53.7026 216.241 54.3098 215.68 54.6456C215.385 54.8265 215.046 54.9225 214.7 54.9229L213.386 54.9244V58.9152C213.386 59.1834 213.326 59.4482 213.211 59.6903C213.096 59.9324 212.929 60.1458 212.722 60.3149C212.515 60.4841 212.273 60.6047 212.013 60.6681C211.754 60.7315 211.484 60.736 211.222 60.6814C210.817 60.5977 210.453 60.3766 210.192 60.0553C209.93 59.734 209.786 59.3319 209.784 58.9166V54.9244H207.35V58.9166C207.349 59.3953 207.159 59.854 206.822 60.192C206.485 60.5301 206.027 60.7197 205.551 60.7194C205.075 60.7186 204.618 60.5285 204.281 60.1908C203.944 59.853 203.754 59.3949 203.752 58.9166V54.9244H202.443C201.686 54.9244 201.038 54.4865 200.725 53.85C200.592 53.5872 200.522 53.2968 200.52 53.002L200.517 41.3098L216.619 41.3054ZM198.017 40.9697C199.011 40.9697 199.819 41.7769 199.819 42.771V50.3176C199.819 50.4412 199.806 50.5623 199.782 50.681C199.722 50.9704 199.593 51.2406 199.405 51.468C199.217 51.6954 198.977 51.8731 198.705 51.9855C198.433 52.0978 198.137 52.1415 197.845 52.1126C197.552 52.0836 197.271 51.9831 197.026 51.8196C196.777 51.6563 196.573 51.4333 196.431 51.1708C196.29 50.9083 196.216 50.6146 196.216 50.3161L196.215 42.771C196.215 41.7784 197.021 40.9697 198.017 40.9697ZM219.116 40.9682C220.11 40.9682 220.917 41.774 220.917 42.7695V50.3147C220.917 51.3116 220.111 52.1174 219.117 52.1174C218.122 52.1174 217.315 51.3116 217.315 50.3147V42.768C217.315 41.7725 218.12 40.9653 219.114 40.9668M212.257 36.379C212.349 36.3747 212.44 36.3892 212.526 36.4215C212.612 36.4537 212.691 36.5032 212.757 36.5669C212.823 36.6305 212.876 36.707 212.912 36.7918C212.948 36.8765 212.967 36.9677 212.967 37.0599C212.967 37.1521 212.948 37.2433 212.912 37.328C212.876 37.4128 212.823 37.4893 212.757 37.553C212.691 37.6166 212.612 37.6661 212.526 37.6984C212.44 37.7307 212.349 37.7451 212.257 37.7409C212.165 37.7451 212.074 37.7307 211.988 37.6984C211.902 37.6661 211.823 37.6166 211.757 37.553C211.691 37.4893 211.638 37.4128 211.602 37.328C211.566 37.2433 211.547 37.1521 211.547 37.0599C211.547 36.9677 211.566 36.8765 211.602 36.7918C211.638 36.707 211.691 36.6305 211.757 36.5669C211.823 36.5032 211.902 36.4537 211.988 36.4215C212.074 36.3892 212.165 36.3747 212.257 36.379Z" fill="white"/>
<circle cx="322.5" cy="45" r="18.5" fill="white"/>
<path d="M323.389 60.5107L323.396 60.5106C325.565 60.5031 327.709 60.0401 329.688 59.1517C331.667 58.2633 333.437 56.9692 334.885 55.3533C336.332 53.7373 337.423 51.8355 338.089 49.7709C338.755 47.7066 338.979 45.5256 338.749 43.3691C338.351 39.5702 336.563 36.0522 333.73 33.4905C330.897 30.9285 327.217 29.5036 323.396 29.4894L323.389 29.4894C321.22 29.497 319.077 29.9599 317.098 30.8483C315.119 31.7368 313.348 33.0308 311.901 34.6468C310.454 36.2628 309.362 38.1646 308.697 40.2292C308.031 42.2935 307.806 44.4744 308.037 46.631C308.435 50.4298 310.222 53.9478 313.055 56.5095C315.889 59.0715 319.569 60.4964 323.389 60.5107ZM273.677 64.727C268.979 60.7122 265.868 55.1523 264.904 49.048C264.319 45.3441 264.543 41.5575 265.562 37.9488C266.581 34.3401 268.37 30.9952 270.806 28.1443C273.242 25.2934 276.267 23.0043 279.672 21.4346C283.078 19.865 286.783 19.052 290.532 19.0518C290.532 19.0518 290.533 19.0518 290.533 19.0518H323.086C329.968 19.0518 336.568 21.7856 341.434 26.6518C346.3 31.5181 349.034 38.1181 349.034 45C349.034 51.8819 346.3 58.482 341.434 63.3482C336.568 68.2145 329.968 70.9483 323.086 70.9483H290.533C290.533 70.9483 290.532 70.9483 290.532 70.9483C284.352 70.9479 278.375 68.7418 273.677 64.727Z" fill="#34D39A" stroke="white" stroke-width="2"/>
</svg>
