<svg width="144" height="36" viewBox="0 0 144 36" fill="none" xmlns="http://www.w3.org/2000/svg">
<g clip-path="url(#clip0_299_143)">
<path d="M55.0068 13.6197V10.2129H68.5797V13.6197H63.8828V25.7871H59.704V13.6197H55.0068Z" fill="#3F3F46"/>
<path d="M79.5835 15.3536C79.5173 15.0849 79.4132 14.8492 79.2709 14.6464C79.1285 14.4385 78.9506 14.2636 78.737 14.1217C78.5288 13.9746 78.2847 13.8657 78.0052 13.7947C77.7305 13.7186 77.4282 13.6806 77.0977 13.6806C76.386 13.6806 75.7786 13.8504 75.2754 14.1901C74.777 14.5298 74.3958 15.019 74.1315 15.6578C73.8722 16.2966 73.7426 17.0672 73.7426 17.9696C73.7426 18.8821 73.8671 19.6629 74.1163 20.3118C74.3652 20.9607 74.7364 21.4576 75.2295 21.8023C75.7225 22.1471 76.3352 22.3194 77.0671 22.3194C77.7129 22.3194 78.2492 22.2256 78.676 22.0381C79.1082 21.8505 79.4311 21.5843 79.6445 21.2396C79.8581 20.8948 79.9647 20.4893 79.9647 20.0228L80.6968 20.0989H77.1281V17.0875H84.0519V19.2472C84.0519 20.6667 83.7495 21.8809 83.1446 22.8898C82.5446 23.8936 81.716 24.6642 80.6586 25.2016C79.6063 25.7339 78.3991 26 77.0367 26C75.5167 26 74.1824 25.6781 73.0334 25.0343C71.8845 24.3903 70.9873 23.4728 70.3417 22.2814C69.7011 21.09 69.3809 19.673 69.3809 18.0304C69.3809 16.7427 69.5766 15.602 69.9681 14.6084C70.3645 13.6147 70.9136 12.7757 71.615 12.0913C72.3167 11.4018 73.1274 10.8821 74.0477 10.5323C74.9677 10.1774 75.9538 10 77.0061 10C77.9314 10 78.7904 10.1318 79.5835 10.3954C80.3817 10.654 81.0856 11.0241 81.6957 11.5057C82.3109 11.9822 82.8065 12.5475 83.1826 13.2015C83.5589 13.8555 83.7875 14.5729 83.8688 15.3536H79.5835Z" fill="#3F3F46"/>
<path d="M86.0293 25.7871V10.2129H97.2842V13.6197H90.2688V16.2966H96.7046V19.7034H90.2688V22.3802H97.2536V25.7871H86.0293Z" fill="#3F3F46"/>
<path d="M105.09 25.9999C103.819 25.9999 102.732 25.749 101.827 25.2471C100.922 24.7403 100.228 24.0355 99.745 23.1331C99.2621 22.2256 99.0205 21.1737 99.0205 19.9772C99.0205 18.7807 99.2621 17.7313 99.745 16.8289C100.228 15.9214 100.922 15.2167 101.827 14.7148C102.732 14.2078 103.819 13.9543 105.09 13.9543C106.239 13.9543 107.233 14.1622 108.072 14.5779C108.916 14.9886 109.569 15.5716 110.031 16.327C110.494 17.0773 110.728 17.9594 110.733 18.9734H106.829C106.773 18.3599 106.595 17.8935 106.295 17.5741C106 17.2497 105.619 17.0874 105.151 17.0874C104.785 17.0874 104.465 17.1939 104.191 17.4068C103.916 17.6147 103.702 17.9316 103.55 18.3574C103.397 18.7782 103.321 19.308 103.321 19.9468C103.321 20.5856 103.397 21.1179 103.55 21.5437C103.702 21.9645 103.916 22.2814 104.191 22.4943C104.465 22.7022 104.785 22.8061 105.151 22.8061C105.461 22.8061 105.736 22.7351 105.975 22.5932C106.214 22.4461 106.407 22.2332 106.554 21.9544C106.707 21.6705 106.798 21.3257 106.829 20.9202H110.733C110.718 21.9493 110.481 22.8467 110.024 23.6122C109.566 24.3727 108.918 24.9607 108.079 25.3765C107.246 25.7923 106.249 25.9999 105.09 25.9999Z" fill="#3F3F46"/>
<path d="M118.112 25.9999C116.841 25.9999 115.753 25.749 114.848 25.2471C113.943 24.7403 113.249 24.0355 112.766 23.1331C112.283 22.2256 112.042 21.1737 112.042 19.9772C112.042 18.7807 112.283 17.7313 112.766 16.8289C113.249 15.9214 113.943 15.2167 114.848 14.7148C115.753 14.2078 116.841 13.9543 118.112 13.9543C119.383 13.9543 120.47 14.2078 121.375 14.7148C122.28 15.2167 122.974 15.9214 123.457 16.8289C123.94 17.7313 124.181 18.7807 124.181 19.9772C124.181 21.1737 123.94 22.2256 123.457 23.1331C122.974 24.0355 122.28 24.7403 121.375 25.2471C120.47 25.749 119.383 25.9999 118.112 25.9999ZM118.142 22.8973C118.498 22.8973 118.806 22.7782 119.065 22.5399C119.324 22.3017 119.525 21.962 119.667 21.5209C119.81 21.0799 119.881 20.5551 119.881 19.9468C119.881 19.3333 119.81 18.8086 119.667 18.3726C119.525 17.9316 119.324 17.5919 119.065 17.3536C118.806 17.1153 118.498 16.9962 118.142 16.9962C117.766 16.9962 117.443 17.1153 117.174 17.3536C116.904 17.5919 116.699 17.9316 116.556 18.3726C116.414 18.8086 116.343 19.3333 116.343 19.9468C116.343 20.5551 116.414 21.0799 116.556 21.5209C116.699 21.962 116.904 22.3017 117.174 22.5399C117.443 22.7782 117.766 22.8973 118.142 22.8973Z" fill="#3F3F46"/>
<path d="M125.89 25.7871V14.1064H129.885V16.327H130.007C130.251 15.597 130.668 15.019 131.258 14.5931C131.847 14.1673 132.549 13.9543 133.362 13.9543C134.186 13.9543 134.895 14.1724 135.49 14.6083C136.084 15.0393 136.443 15.6121 136.565 16.327H136.687C136.885 15.6121 137.307 15.0393 137.953 14.6083C138.598 14.1724 139.356 13.9543 140.225 13.9543C141.349 13.9543 142.259 14.3143 142.955 15.0342C143.656 15.7541 144.007 16.7123 144.007 17.9087V25.7871H139.798V18.9734C139.798 18.4613 139.668 18.0608 139.409 17.7719C139.15 17.4778 138.802 17.3308 138.364 17.3308C137.932 17.3308 137.589 17.4778 137.335 17.7719C137.086 18.0608 136.961 18.4613 136.961 18.9734V25.7871H132.935V18.9734C132.935 18.4613 132.806 18.0608 132.546 17.7719C132.287 17.4778 131.939 17.3308 131.502 17.3308C131.212 17.3308 130.963 17.3967 130.754 17.5285C130.546 17.6603 130.383 17.8504 130.266 18.0989C130.155 18.3422 130.099 18.6337 130.099 18.9734V25.7871H125.89Z" fill="#3F3F46"/>
<path fill-rule="evenodd" clip-rule="evenodd" d="M37.8138 22.2388L32.3297 31.7431C30.8502 34.3077 28.1115 35.8853 25.1466 35.8813L13.9703 35.8669C11.0074 35.8629 8.26788 34.28 6.783 31.7147L6.59703 31.3932C4.80083 26.7731 4.93406 25.5965 6.99541 21.9083C6.34033 23.1164 6.56256 24.4827 7.32839 25.4283C7.89641 26.1297 8.76416 26.5995 9.7951 26.601L16.0972 26.6095C16.5594 26.6102 16.9546 26.2798 17.0354 25.8254L19.1118 14.153C19.174 13.8037 19.6753 13.8043 19.7385 14.1538L21.8461 25.8315C21.928 26.2863 22.3244 26.6178 22.7863 26.6183L27.43 26.6244C27.5227 26.6245 27.614 26.6247 27.7043 26.6246C27.7408 26.6245 27.7773 26.6249 27.8134 26.6246C27.8812 26.6247 27.9483 26.6248 28.0146 26.6248L29.0884 26.6268C29.1651 26.6268 29.2408 26.6243 29.3151 26.6194C29.3155 26.6196 29.3155 26.6196 29.3155 26.6196C33.6119 26.5715 34.6923 26.1189 37.8138 22.2388Z" fill="url(#paint0_linear_299_143)"/>
<path fill-rule="evenodd" clip-rule="evenodd" d="M32.2886 4.1166L37.8896 13.7939C39.3755 16.3615 39.3795 19.5232 37.8997 22.088L37.8126 22.2387C34.6916 26.1188 33.6108 26.571 29.3145 26.6192C30.5822 26.5347 31.5744 25.7324 32.0177 24.6861C32.3839 23.8216 32.3753 22.7908 31.8371 21.861L23.0528 6.68376L23.0734 6.69927C20.1018 1.56243 19.6234 0.819971 14.043 -0.050293L25.1014 -0.0355328C28.0643 -0.0315368 30.8038 1.55109 32.2886 4.1166Z" fill="url(#paint1_linear_299_143)"/>
<path fill-rule="evenodd" clip-rule="evenodd" d="M22.1686 5.15511C21.4615 3.93327 20.1463 3.41382 18.9242 3.59739C18.0242 3.73249 17.1747 4.24931 16.6564 5.14762L8.3122 19.6091L7.96775 20.2095L7.96851 20.2048C7.62463 20.8008 7.31457 21.3381 7.0383 21.8308C7.02657 21.8511 7.01513 21.8717 7.00369 21.8922C7.0006 21.8976 6.99764 21.9026 6.99455 21.908C4.9332 25.5962 4.79997 26.7727 6.59617 31.3928L1.18157 22.0369C-0.304314 19.4696 -0.308164 16.3077 1.17153 13.7432L6.74253 4.08799C8.2224 1.52317 10.9609 -0.0541668 13.9259 -0.0505308L14.0436 -0.0502788C19.624 0.819949 20.1024 1.56241 23.074 6.69925L23.0534 6.68377L22.1686 5.15511Z" fill="url(#paint2_linear_299_143)"/>
</g>
<defs>
<linearGradient id="paint0_linear_299_143" x1="28.6018" y1="31.2467" x2="10.9037" y2="31.7062" gradientUnits="userSpaceOnUse">
<stop stop-color="#FDC830"/>
<stop offset="1" stop-color="#F37335"/>
</linearGradient>
<linearGradient id="paint1_linear_299_143" x1="26.7901" y1="5.48053" x2="34.0097" y2="18.2476" gradientUnits="userSpaceOnUse">
<stop stop-color="#FDC830"/>
<stop offset="1" stop-color="#F37335"/>
</linearGradient>
<linearGradient id="paint2_linear_299_143" x1="3.07142" y1="19.7273" x2="13.138" y2="4.09259" gradientUnits="userSpaceOnUse">
<stop stop-color="#FDC830"/>
<stop offset="1" stop-color="#F37335"/>
</linearGradient>
<clipPath id="clip0_299_143">
<rect width="144" height="36" fill="white"/>
</clipPath>
</defs>
</svg>
