<svg width="42" height="38" viewBox="0 0 42 38" fill="none" xmlns="http://www.w3.org/2000/svg">
<path d="M24.4588 7.5823L33.2544 22.7878C33.7935 23.7194 33.8019 24.7522 33.435 25.6184C32.9912 26.6667 31.9974 27.4707 30.7277 27.5554C35.0304 27.5068 36.1126 27.0535 39.2388 23.1657L39.3259 23.0147C40.8082 20.4448 40.8044 17.277 39.3168 14.7046L33.7085 5.00926C32.2217 2.43897 29.4784 0.85358 26.5111 0.849873L15.4365 0.836179M24.4588 7.5823L24.4794 7.59782C21.504 2.45139 21.025 1.70755 15.4365 0.836179M24.4588 7.5823L23.5729 6.05077C22.8649 4.82664 21.5477 4.30633 20.3239 4.49037C19.4225 4.62584 18.5718 5.14373 18.0526 6.0438L9.69473 20.534L9.34972 21.1356L9.35047 21.1308C9.00603 21.728 8.69547 22.2664 8.41873 22.76C8.40698 22.7804 8.39553 22.801 8.38407 22.8215C8.38096 22.8269 8.37803 22.832 8.37491 22.8374C6.31019 26.5329 6.17665 27.7117 7.97501 32.3405L2.55339 22.9671C1.0656 20.3951 1.06205 17.227 2.54417 14.6574L8.12427 4.98312C9.60657 2.41323 12.3492 0.832567 15.3186 0.835943L15.4365 0.836179M39.2388 23.1658L33.7458 32.6891C32.2637 35.2586 29.5209 36.8396 26.5517 36.8359L15.359 36.8223C12.3918 36.8186 9.64842 35.2332 8.1616 32.6629L7.9754 32.3408C6.17704 27.712 6.31057 26.5332 8.3753 22.8377C7.71914 24.0481 7.94156 25.4171 8.70841 26.3644C9.27719 27.0671 10.1462 27.5377 11.1786 27.5391L17.49 27.547C17.9528 27.5476 18.3486 27.2166 18.4296 26.7613L20.5102 15.0662C20.5725 14.7163 21.0746 14.7168 21.1378 15.067L23.2474 26.767C23.3294 27.2226 23.7263 27.5547 24.1888 27.5551L28.8394 27.5609C28.9321 27.5609 29.0236 27.5611 29.1141 27.561C29.1505 27.5609 29.1871 27.5613 29.2233 27.561C29.2912 27.5611 29.3584 27.5612 29.4248 27.5612L30.5002 27.5631C30.577 27.5631 30.6528 27.5606 30.7273 27.5557C30.7276 27.5558 30.7276 27.5558 30.7276 27.5558C35.0302 27.5071 36.1125 27.0539 39.2386 23.1661L39.2388 23.1658Z" stroke="url(#paint0_angular_1137_142)" stroke-width="1.2"/>
<defs>
<radialGradient id="paint0_angular_1137_142" cx="0" cy="0" r="1" gradientUnits="userSpaceOnUse" gradientTransform="translate(21 19) scale(20 21.6667)">
<stop stop-color="#A0D1FF"/>
<stop offset="0.175" stop-color="#197CD7"/>
<stop offset="0.385" stop-color="#6947F3"/>
<stop offset="0.605" stop-color="#FF9A3C"/>
<stop offset="0.805" stop-color="#FF5B96"/>
<stop offset="1" stop-color="#40BAFF"/>
</radialGradient>
</defs>
</svg>
