<svg width="416" height="58" viewBox="0 0 416 58" fill="none" xmlns="http://www.w3.org/2000/svg">
<g opacity="0.5">
<rect x="315.849" width="30" height="30" rx="15" fill="white"/>
<path d="M326.536 23.125H335.161C335.934 23.125 336.549 22.4887 336.466 21.7555C335.929 17.0312 332.723 17.1094 332.723 15C332.723 12.8906 335.97 13.0078 336.466 8.24453C336.544 7.51094 335.934 6.875 335.161 6.875H326.536C325.763 6.875 325.155 7.51094 325.231 8.24453C325.727 13.0078 328.973 12.8516 328.973 15C328.973 17.1484 325.768 17.0312 325.231 21.7555C325.148 22.4887 325.763 23.125 326.536 23.125Z" stroke="#76BFF6" stroke-width="1.25" stroke-linecap="round" stroke-linejoin="round"/>
<path d="M334.046 22.3066H327.668C327.096 22.3066 326.935 21.5596 327.336 21.0964C328.306 19.9824 330.263 19.1847 330.263 17.9072V13.6738C330.263 12.85 328.871 12.2212 328.011 10.8848C327.868 10.6644 327.883 10.3535 328.244 10.3535H333.471C333.779 10.3535 333.845 10.6619 333.705 10.8827C332.857 12.2212 331.435 12.8458 331.435 13.6738V17.9072C331.435 19.1743 333.475 19.8579 334.379 21.0976C334.744 21.5973 334.616 22.3066 334.046 22.3066Z" fill="#76BFF6"/>
</g>
<path d="M52 16H242.237" stroke="white" stroke-width="0.56872" stroke-dasharray="2.27 2.27"/>
<rect x="44" width="30" height="30" rx="15" fill="white"/>
<path d="M56.3292 18.2288L52.8542 14.7538L51.6709 15.9288L56.3292 20.5871L66.3292 10.5871L65.1542 9.41211L56.3292 18.2288Z" fill="#76BFF6"/>
<rect x="139" width="30" height="30" rx="15" fill="white"/>
<path d="M151.329 18.2288L147.854 14.7538L146.671 15.9288L151.329 20.5871L161.329 10.5871L160.154 9.41211L151.329 18.2288Z" fill="#76BFF6"/>
<rect x="233" width="30" height="30" rx="15" fill="white"/>
<path d="M254.251 19.5833C254.251 20.1359 254.031 20.6658 253.641 21.0565C253.25 21.4472 252.72 21.6667 252.168 21.6667C251.615 21.6667 251.085 21.4472 250.695 21.0565C250.304 20.6658 250.084 20.1359 250.084 19.5833C250.084 19.0308 250.304 18.5009 250.695 18.1102C251.085 17.7195 251.615 17.5 252.168 17.5C252.72 17.5 253.25 17.7195 253.641 18.1102C254.031 18.5009 254.251 19.0308 254.251 19.5833ZM245.918 19.5833C245.918 20.1359 245.698 20.6658 245.307 21.0565C244.917 21.4472 244.387 21.6667 243.834 21.6667C243.282 21.6667 242.752 21.4472 242.361 21.0565C241.97 20.6658 241.751 20.1359 241.751 19.5833C241.751 19.0308 241.97 18.5009 242.361 18.1102C242.752 17.7195 243.282 17.5 243.834 17.5C244.387 17.5 244.917 17.7195 245.307 18.1102C245.698 18.5009 245.918 19.0308 245.918 19.5833Z" stroke="#76BFF6" stroke-width="1.25" stroke-linecap="round" stroke-linejoin="round"/>
<path d="M250.084 19.583H245.917M239.667 8.33301H248C249.179 8.33301 249.768 8.33301 250.134 8.69967C250.5 9.06467 250.5 9.65384 250.5 10.833V17.9163M250.917 10.4163H252.418C253.109 10.4163 253.455 10.4163 253.742 10.5788C254.029 10.7405 254.206 11.0372 254.562 11.6305L255.978 13.9888C256.154 14.2838 256.243 14.4322 256.289 14.5955C256.334 14.7597 256.334 14.9313 256.334 15.2755V17.4997C256.334 18.2788 256.334 18.668 256.166 18.958C256.056 19.148 255.899 19.3058 255.709 19.4155C255.419 19.583 255.029 19.583 254.25 19.583M239.667 15.833V17.4997C239.667 18.2788 239.667 18.668 239.834 18.958C239.944 19.148 240.102 19.3058 240.292 19.4155C240.582 19.583 240.971 19.583 241.75 19.583M239.667 10.833H244.667M239.667 13.333H243" stroke="#76BFF6" stroke-width="1.25" stroke-linecap="round" stroke-linejoin="round"/>
<path d="M45.9772 42.132V41.0878H46.8258C47.4656 41.0878 47.9055 40.7324 47.9055 40.2037C47.9055 39.6794 47.5012 39.355 46.8436 39.355C46.1771 39.355 45.7417 39.7105 45.7062 40.2748H44.4665C44.511 39.0662 45.4396 38.3109 46.8791 38.3109C48.2521 38.3109 49.1851 39.0173 49.1851 40.0482C49.1851 40.7724 48.6964 41.3633 47.9766 41.5144V41.5499C48.843 41.6477 49.3895 42.2564 49.3895 43.1139C49.3895 44.238 48.3232 45.0511 46.848 45.0511C45.3818 45.0511 44.3821 44.2647 44.3243 43.065H45.6084C45.6484 43.616 46.1327 43.967 46.8614 43.967C47.5501 43.967 48.0121 43.5849 48.0121 43.025C48.0121 42.4652 47.5723 42.132 46.8392 42.132H45.9772ZM54.3747 44.8867L53.886 43.3316H51.6333L51.1446 44.8867H49.7672L51.9932 38.4753H53.5705L55.8009 44.8867H54.3747ZM52.7441 39.7016L51.9221 42.3275H53.5972L52.7752 39.7016H52.7441ZM59.1511 41.5099L62.0169 44.8867H60.3418L57.9248 42.0698H57.8892V44.8867H56.5474V38.4753H57.8892V41.19H57.9248L60.293 38.4753H61.8081L59.1511 41.5099ZM66.851 44.8867L66.3623 43.3316H64.1096L63.6209 44.8867H62.2435L64.4695 38.4753H66.0468L68.2773 44.8867H66.851ZM65.2204 39.7016L64.3984 42.3275H66.0735L65.2515 39.7016H65.2204ZM70.3078 42.132V41.0878H71.1564C71.7962 41.0878 72.2361 40.7324 72.2361 40.2037C72.2361 39.6794 71.8318 39.355 71.1742 39.355C70.5077 39.355 70.0723 39.7105 70.0367 40.2748H68.7971C68.8415 39.0662 69.7701 38.3109 71.2097 38.3109C72.5826 38.3109 73.5157 39.0173 73.5157 40.0482C73.5157 40.7724 73.027 41.3633 72.3072 41.5144V41.5499C73.1736 41.6477 73.7201 42.2564 73.7201 43.1139C73.7201 44.238 72.6537 45.0511 71.1786 45.0511C69.7124 45.0511 68.7127 44.2647 68.6549 43.065H69.939C69.979 43.616 70.4633 43.967 71.1919 43.967C71.8806 43.967 72.3427 43.5849 72.3427 43.025C72.3427 42.4652 71.9028 42.132 71.1697 42.132H70.3078ZM47.4701 49.3642C49.3673 49.3642 50.5625 50.6394 50.5625 52.6832C50.5625 54.7226 49.3673 55.9978 47.4701 55.9978C45.5684 55.9978 44.3777 54.7226 44.3777 52.6832C44.3777 50.6394 45.5684 49.3642 47.4701 49.3642ZM47.4701 50.4839C46.4215 50.4839 45.7461 51.337 45.7461 52.6832C45.7461 54.025 46.4171 54.8737 47.4701 54.8737C48.5187 54.8737 49.1896 54.025 49.1896 52.6832C49.1896 51.337 48.5187 50.4839 47.4701 50.4839ZM54.2192 54.2561V51.0793C53.2373 51.1281 52.6019 51.7235 52.6019 52.6655C52.6019 53.6207 53.2373 54.2161 54.2192 54.2561ZM57.125 52.6699C57.125 51.7191 56.4896 51.1237 55.5077 51.0793V54.2561C56.4896 54.2117 57.125 53.6163 57.125 52.6699ZM54.2059 55.3358C52.4242 55.2825 51.2512 54.2961 51.2512 52.6655C51.2512 51.0482 52.4242 50.0618 54.2059 50.004V49.342H55.5255V50.004C57.3072 50.0573 58.4757 51.0437 58.4757 52.6699C58.4757 54.2916 57.3027 55.278 55.5255 55.3358V56.02H54.2059V55.3358ZM62.2568 49.3642C64.154 49.3642 65.3492 50.6394 65.3492 52.6832C65.3492 54.7226 64.154 55.9978 62.2568 55.9978C60.3552 55.9978 59.1644 54.7226 59.1644 52.6832C59.1644 50.6394 60.3552 49.3642 62.2568 49.3642ZM62.2568 50.4839C61.2082 50.4839 60.5329 51.337 60.5329 52.6832C60.5329 54.025 61.2038 54.8737 62.2568 54.8737C63.3054 54.8737 63.9763 54.025 63.9763 52.6832C63.9763 51.337 63.3054 50.4839 62.2568 50.4839ZM66.3045 49.4753H68.9126C70.2278 49.4753 71.1342 50.3506 71.1342 51.6702C71.1342 52.9854 70.1967 53.8651 68.846 53.8651H67.6463V55.8867H66.3045V49.4753ZM67.6463 50.5372V52.8165H68.5527C69.3214 52.8165 69.7701 52.4077 69.7701 51.6746C69.7701 50.946 69.3258 50.5372 68.5572 50.5372H67.6463ZM78.8519 55.8867H77.6567V51.5591H77.6212L75.8794 55.8245H75.0353L73.2935 51.5591H73.258V55.8867H72.0628V49.4753H73.6179L75.4396 54.0206H75.4751L77.2968 49.4753H78.8519V55.8867ZM85.3789 55.8867H84.037V50.5816H82.1665L82.011 53.3541C81.9221 55.0114 81.3934 55.9445 80.1137 55.9445C79.896 55.9445 79.7183 55.9134 79.6294 55.8823V54.7093C79.6916 54.7226 79.8116 54.7448 79.9271 54.7448C80.5225 54.7448 80.7269 54.2294 80.7758 53.2653L80.9668 49.4753H85.3789V55.8867ZM90.7861 54.7759V55.8867H86.5385V49.4753H90.7861V50.5816H87.8803V52.1278H90.6217V53.1586H87.8803V54.7759H90.7861ZM97.4242 55.8867H96.0823V53.1853H93.1943V55.8867H91.8525V49.4753H93.1943V52.079H96.0823V49.4753H97.4242V55.8867Z" fill="white"/>
<path d="M145.504 42.132V41.0878H146.352C146.992 41.0878 147.432 40.7324 147.432 40.2037C147.432 39.6794 147.028 39.355 146.37 39.355C145.703 39.355 145.268 39.7105 145.233 40.2748H143.993C144.037 39.0662 144.966 38.3109 146.406 38.3109C147.778 38.3109 148.711 39.0173 148.711 40.0482C148.711 40.7724 148.223 41.3633 147.503 41.5144V41.5499C148.369 41.6477 148.916 42.2564 148.916 43.1139C148.916 44.238 147.85 45.0511 146.374 45.0511C144.908 45.0511 143.908 44.2647 143.851 43.065H145.135C145.175 43.616 145.659 43.967 146.388 43.967C147.076 43.967 147.539 43.5849 147.539 43.025C147.539 42.4652 147.099 42.132 146.366 42.132H145.504ZM153.901 44.8867L153.412 43.3316H151.16L150.671 44.8867H149.294L151.52 38.4753H153.097L155.327 44.8867H153.901ZM152.27 39.7016L151.448 42.3275H153.124L152.302 39.7016H152.27ZM158.677 41.5099L161.543 44.8867H159.868L157.451 42.0698H157.416V44.8867H156.074V38.4753H157.416V41.19H157.451L159.819 38.4753H161.334L158.677 41.5099ZM166.377 44.8867L165.889 43.3316H163.636L163.147 44.8867H161.77L163.996 38.4753H165.573L167.804 44.8867H166.377ZM164.747 39.7016L163.925 42.3275H165.6L164.778 39.7016H164.747ZM169.834 42.132V41.0878H170.683C171.323 41.0878 171.762 40.7324 171.762 40.2037C171.762 39.6794 171.358 39.355 170.701 39.355C170.034 39.355 169.599 39.7105 169.563 40.2748H168.323C168.368 39.0662 169.297 38.3109 170.736 38.3109C172.109 38.3109 173.042 39.0173 173.042 40.0482C173.042 40.7724 172.553 41.3633 171.834 41.5144V41.5499C172.7 41.6477 173.246 42.2564 173.246 43.1139C173.246 44.238 172.18 45.0511 170.705 45.0511C169.239 45.0511 168.239 44.2647 168.181 43.065H169.465C169.505 43.616 169.99 43.967 170.718 43.967C171.407 43.967 171.869 43.5849 171.869 43.025C171.869 42.4652 171.429 42.132 170.696 42.132H169.834ZM146.996 49.3642C148.894 49.3642 150.089 50.6394 150.089 52.6832C150.089 54.7226 148.894 55.9978 146.996 55.9978C145.095 55.9978 143.904 54.7226 143.904 52.6832C143.904 50.6394 145.095 49.3642 146.996 49.3642ZM146.996 50.4839C145.948 50.4839 145.273 51.337 145.273 52.6832C145.273 54.025 145.943 54.8737 146.996 54.8737C148.045 54.8737 148.716 54.025 148.716 52.6832C148.716 51.337 148.045 50.4839 146.996 50.4839ZM156.549 55.8867H155.212V50.5861H152.39V55.8867H151.044V49.4753H156.549V55.8867ZM163.081 55.8867H161.739V50.5816H159.868L159.713 53.3541C159.624 55.0114 159.095 55.9445 157.815 55.9445C157.598 55.9445 157.42 55.9134 157.331 55.8823V54.7093C157.393 54.7226 157.513 54.7448 157.629 54.7448C158.224 54.7448 158.429 54.2294 158.477 53.2653L158.669 49.4753H163.081V55.8867ZM168.439 55.8867L167.95 54.3316H165.698L165.209 55.8867H163.831L166.057 49.4753H167.635L169.865 55.8867H168.439ZM166.808 50.7016L165.986 53.3275H167.661L166.839 50.7016H166.808ZM175.237 55.8867H173.895V53.2519H173.842C173.66 53.3941 173.14 53.674 172.358 53.674C170.781 53.674 169.91 52.6699 169.91 51.297V49.4753H171.251V51.1948C171.251 52.0301 171.722 52.5233 172.602 52.5233C173.318 52.5233 173.722 52.2478 173.895 52.0745V49.4753H175.237V55.8867ZM180.644 54.7759V55.8867H176.397V49.4753H180.644V50.5816H177.738V52.1278H180.48V53.1586H177.738V54.7759H180.644ZM187.282 55.8867H185.94V53.1853H183.052V55.8867H181.711V49.4753H183.052V52.079H185.94V49.4753H187.282V55.8867Z" fill="white"/>
<path d="M236.565 41.5099L239.431 44.8867H237.756L235.339 42.0698H235.303V44.8867H233.961V38.4753H235.303V41.19H235.339L237.707 38.4753H239.222L236.565 41.5099ZM240.848 44.9445C240.573 44.9445 240.328 44.9 240.293 44.8778V43.7848C240.337 43.7982 240.457 43.8248 240.684 43.8248C241.075 43.8248 241.364 43.7093 241.59 43.3583L239.462 38.4753H240.884L242.283 42.0387H242.337L243.67 38.4753H245.083L243.119 43.0517C242.559 44.3535 241.99 44.9445 240.848 44.9445ZM245.807 38.4753H248.415C249.73 38.4753 250.636 39.3506 250.636 40.6702C250.636 41.9854 249.699 42.8651 248.348 42.8651H247.149V44.8867H245.807V38.4753ZM247.149 39.5372V41.8165H248.055C248.824 41.8165 249.272 41.4077 249.272 40.6746C249.272 39.946 248.828 39.5372 248.059 39.5372H247.149ZM251.565 44.8867V38.4753H252.907V40.6258H254.151C255.502 40.6258 256.439 41.4833 256.439 42.754C256.439 44.0336 255.537 44.8867 254.218 44.8867H251.565ZM252.907 43.8159H253.862C254.626 43.8159 255.066 43.4427 255.066 42.754C255.066 42.0609 254.622 41.6832 253.858 41.6832H252.907V43.8159ZM261.562 43.7759V44.8867H257.314V38.4753H261.562V39.5816H258.656V41.1278H261.398V42.1586H258.656V43.7759H261.562ZM262.628 38.4753H265.237C266.552 38.4753 267.458 39.3506 267.458 40.6702C267.458 41.9854 266.521 42.8651 265.17 42.8651H263.97V44.8867H262.628V38.4753ZM263.97 39.5372V41.8165H264.877C265.645 41.8165 266.094 41.4077 266.094 40.6746C266.094 39.946 265.65 39.5372 264.881 39.5372H263.97ZM236.801 55.8867H233.961V49.4753H236.752C237.956 49.4753 238.711 50.0929 238.711 51.0748C238.711 51.7768 238.187 52.3633 237.507 52.4655V52.5011C238.378 52.5677 239.018 53.2031 239.018 54.0517C239.018 55.1803 238.169 55.8867 236.801 55.8867ZM235.303 50.475V52.1412H236.267C236.983 52.1412 237.391 51.8257 237.391 51.2836C237.391 50.7682 237.032 50.475 236.405 50.475H235.303ZM235.303 54.887H236.458C237.232 54.887 237.649 54.5582 237.649 53.9451C237.649 53.3452 237.218 53.0253 236.427 53.0253H235.303V54.887ZM247.18 55.8867H245.842V50.5861H243.021V55.8867H241.675V49.4753H247.18V55.8867ZM249.317 55.9445C249.041 55.9445 248.797 55.9 248.761 55.8778V54.7848C248.806 54.7982 248.926 54.8248 249.152 54.8248C249.543 54.8248 249.832 54.7093 250.059 54.3583L247.931 49.4753H249.352L250.752 53.0387H250.805L252.138 49.4753H253.551L251.587 54.0517C251.027 55.3535 250.459 55.9445 249.317 55.9445ZM257.061 55.8867H255.719V50.5816H253.867V49.4753H258.918V50.5816H257.061V55.8867ZM264.006 55.8867V51.5502H263.953L261.042 55.8867H259.749V49.4753H261.087V53.8162H261.14L264.05 49.4753H265.343V55.8867H264.006Z" fill="white"/>
<path opacity="0.5" d="M317.826 42.132V41.0878H318.674C319.314 41.0878 319.754 40.7324 319.754 40.2037C319.754 39.6794 319.35 39.355 318.692 39.355C318.026 39.355 317.59 39.7105 317.555 40.2748H316.315C316.36 39.0662 317.288 38.3109 318.728 38.3109C320.101 38.3109 321.034 39.0173 321.034 40.0482C321.034 40.7724 320.545 41.3633 319.825 41.5144V41.5499C320.692 41.6477 321.238 42.2564 321.238 43.1139C321.238 44.238 320.172 45.0511 318.697 45.0511C317.23 45.0511 316.231 44.2647 316.173 43.065H317.457C317.497 43.616 317.981 43.967 318.71 43.967C319.399 43.967 319.861 43.5849 319.861 43.025C319.861 42.4652 319.421 42.132 318.688 42.132H317.826ZM326.223 44.8867L325.735 43.3316H323.482L322.993 44.8867H321.616L323.842 38.4753H325.419L327.65 44.8867H326.223ZM324.593 39.7016L323.771 42.3275H325.446L324.624 39.7016H324.593ZM331 41.5099L333.866 44.8867H332.19L329.773 42.0698H329.738V44.8867H328.396V38.4753H329.738V41.19H329.773L332.142 38.4753H333.657L331 41.5099ZM338.7 44.8867L338.211 43.3316H335.958L335.469 44.8867H334.092L336.318 38.4753H337.895L340.126 44.8867H338.7ZM337.069 39.7016L336.247 42.3275H337.922L337.1 39.7016H337.069ZM342.156 42.132V41.0878H343.005C343.645 41.0878 344.085 40.7324 344.085 40.2037C344.085 39.6794 343.68 39.355 343.023 39.355C342.356 39.355 341.921 39.7105 341.885 40.2748H340.646C340.69 39.0662 341.619 38.3109 343.058 38.3109C344.431 38.3109 345.364 39.0173 345.364 40.0482C345.364 40.7724 344.876 41.3633 344.156 41.5144V41.5499C345.022 41.6477 345.569 42.2564 345.569 43.1139C345.569 44.238 344.502 45.0511 343.027 45.0511C341.561 45.0511 340.561 44.2647 340.504 43.065H341.788C341.828 43.616 342.312 43.967 343.041 43.967C343.729 43.967 344.191 43.5849 344.191 43.025C344.191 42.4652 343.751 42.132 343.018 42.132H342.156ZM318.275 53.1986C318.226 53.914 318.132 54.4072 317.848 54.7404V54.7759H320.465V50.5772H318.443L318.275 53.1986ZM317.177 55.8867V57.153H315.96V54.7759H316.408C316.857 54.4694 316.986 53.9673 317.039 53.0964L317.262 49.4753H321.807V54.7759H322.607V57.153H321.394V55.8867H317.177ZM326.259 49.3642C328.156 49.3642 329.351 50.6394 329.351 52.6832C329.351 54.7226 328.156 55.9978 326.259 55.9978C324.357 55.9978 323.166 54.7226 323.166 52.6832C323.166 50.6394 324.357 49.3642 326.259 49.3642ZM326.259 50.4839C325.21 50.4839 324.535 51.337 324.535 52.6832C324.535 54.025 325.206 54.8737 326.259 54.8737C327.307 54.8737 327.978 54.025 327.978 52.6832C327.978 51.337 327.307 50.4839 326.259 50.4839ZM333.141 56.0289C331.275 56.0289 330.107 54.7493 330.107 52.6788C330.107 50.6127 331.284 49.3331 333.141 49.3331C334.634 49.3331 335.781 50.275 335.949 51.6391H334.63C334.461 50.9326 333.879 50.475 333.141 50.475C332.128 50.475 331.475 51.3236 331.475 52.6743C331.475 54.0428 332.119 54.887 333.146 54.887C333.897 54.887 334.448 54.4738 334.634 53.7896H335.954C335.745 55.158 334.665 56.0289 333.141 56.0289ZM339.482 55.8867H338.14V50.5816H336.287V49.4753H341.339V50.5816H339.482V55.8867ZM345.658 55.8867L345.169 54.3316H342.916L342.427 55.8867H341.05L343.276 49.4753H344.853L347.084 55.8867H345.658ZM344.027 50.7016L343.205 53.3275H344.88L344.058 50.7016H344.027ZM350.669 55.8867H347.83V49.4753H350.621C351.825 49.4753 352.58 50.0929 352.58 51.0748C352.58 51.7768 352.056 52.3633 351.376 52.4655V52.5011C352.247 52.5677 352.887 53.2031 352.887 54.0517C352.887 55.1803 352.038 55.8867 350.669 55.8867ZM349.172 50.475V52.1412H350.136C350.852 52.1412 351.26 51.8257 351.26 51.2836C351.26 50.7682 350.9 50.475 350.274 50.475H349.172ZM349.172 54.887H350.327C351.1 54.887 351.518 54.5582 351.518 53.9451C351.518 53.3452 351.087 53.0253 350.296 53.0253H349.172V54.887ZM358.996 55.8867H357.654V50.5816H355.783L355.628 53.3541C355.539 55.0114 355.01 55.9445 353.731 55.9445C353.513 55.9445 353.335 55.9134 353.246 55.8823V54.7093C353.309 54.7226 353.429 54.7448 353.544 54.7448C354.14 54.7448 354.344 54.2294 354.393 53.2653L354.584 49.4753H358.996V55.8867ZM364.403 54.7759V55.8867H360.156V49.4753H364.403V50.5816H361.497V52.1278H364.239V53.1586H361.497V54.7759H364.403ZM371.041 55.8867H369.699V53.1853H366.811V55.8867H365.469V49.4753H366.811V52.079H369.699V49.4753H371.041V55.8867Z" fill="white"/>
</svg>
